<?xml version="1.0" encoding="UTF-8"?>
<svg aria-hidden="true" focusable="false" width="210px" height="390px" viewBox="0 0 210 390" version="1.1" xmlns="http://www.w3.org/2000/svg" xmlns:xlink="http://www.w3.org/1999/xlink">
    <defs>
        <rect id="path-1" x="2.09016393" y="3.83130137" width="58.5245902" height="4.17808219"></rect>
    </defs>
    <g id="Page-1" stroke="none" stroke-width="1" fill="none" fill-rule="evenodd">
        <g id="T_Wizard_01a" transform="translate(-37.000000, -128.000000)">
            <g id="Group" transform="translate(-30.000000, 128.000000)">
            <ellipse id="Oval" fill-opacity="0.5" fill="#D8D8D8" cx="157" cy="377.5" rx="90" ry="12.5" ></ellipse>
                <g id="illustation_woman_face_02" transform="translate(115.000000, 0.000000)">
                    <path d="M84.8948571,43.2306 L84.8948571,67.4226 C84.8948571,71.5512 84.119619,75.4698 82.711619,79.044 L82.6445714,79.1826 C81.0731429,83.0676 78.76,86.5368 75.8937143,89.3382 C74.0792381,91.119 72.0217143,92.652 69.8049524,93.8532 L69.7881905,93.87 C66.0628571,95.9112 61.8388571,97.0578 57.367619,97.0578 L28.3192381,97.0578 C23.848,97.0578 19.624,95.9112 15.8819048,93.87 L15.8651429,93.8532 C13.648381,92.652 11.607619,91.1358 9.79314286,89.3592 C6.91009524,86.5368 4.58019048,83.0508 3.02552381,79.1448 L2.9752381,79.023 C1.55047619,75.4698 0.775238095,71.5512 0.775238095,67.4226 L0.775238095,43.2306 C0.775238095,42.6888 0.792,42.168 0.808761905,41.643 C1.45409524,27.3546 10.6689524,29.505 23.0057143,25.7208 C25.6457143,24.9018 28.4491429,24.4692 31.328,24.4692 L54.3714286,24.4692 C57.2419048,24.4692 60.0579048,24.9018 62.6811429,25.7208 C75.0179048,29.505 84.2327619,27.3546 84.8655238,41.643 C84.8780952,42.168 84.8948571,42.6888 84.8948571,43.2306" id="Fill-1393" fill="#8B5E3C"></path>
                    <path d="M86.1310476,56.28 L86.1310476,81.585 C86.1310476,87.3474 85.2510476,92.8158 83.6544762,97.797 L83.5832381,97.9902 C81.8022857,103.4124 79.1832381,108.2508 75.935619,112.1652 C73.8822857,114.6432 71.5565714,116.781 69.0422857,118.4568 L69.0255238,118.482 C64.8099048,121.3254 60.024381,122.9298 54.9622857,122.9298 L31.1855238,122.9298 C26.1234286,122.9298 21.3379048,121.3254 17.1055238,118.482 L17.0845714,118.4568 C14.5744762,116.781 12.2655238,114.6684 10.2121905,112.1862 C6.94780952,108.2508 4.30780952,103.3872 2.54780952,97.944 L2.49333333,97.7718 C0.88,92.8158 4.4408921e-14,87.3474 4.4408921e-14,81.585 L4.4408921e-14,56.28 C4.4408921e-14,55.5282 0.0167619048,54.7974 0.0335238095,54.0708 C0.771047619,34.1376 11.2011429,17.4384 25.1721905,12.1632 C28.16,11.0208 31.3321905,10.4118 34.592381,10.4118 L51.5721905,10.4118 C54.815619,10.4118 58.0045714,11.0208 60.975619,12.1632 C74.9466667,17.4384 85.3767619,34.1376 86.0933333,54.0708 C86.1100952,54.7974 86.1310476,55.5282 86.1310476,56.28" id="Fill-1394" fill="#804B4C"></path>
                    <path d="M69.8510476,56.847 L69.8510476,81.9336 C69.8510476,87.6456 69.3062857,93.0678 68.3131429,98.0112 L68.2670476,98.2044 C67.1607619,103.5762 65.5306667,108.3726 63.5108571,112.2534 C62.2327619,114.7146 60.7870476,116.8356 59.224,118.4946 L59.2114286,118.5198 C56.5881905,121.3422 53.6129524,122.9298 50.4659048,122.9298 L35.6735238,122.9298 C32.5264762,122.9298 29.5512381,121.3422 26.9154286,118.5198 L26.9070476,118.4946 C25.344,116.8356 23.9066667,114.7356 22.6285714,112.2786 C20.600381,108.3726 18.9577143,103.5552 17.8598095,98.154 L17.8262857,97.986 C16.8247619,93.0678 16.2758095,87.6456 16.2758095,81.9336 L16.2758095,56.847 C16.2758095,56.0994 16.288381,55.377 16.3009524,54.6546 C16.7577143,34.8894 23.2445714,18.333 31.935619,13.0998 C33.792,11.97 35.7657143,11.3652 37.7939048,11.3652 L48.3580952,11.3652 C50.3737143,11.3652 52.36,11.97 54.208,13.0998 C62.8948571,18.333 69.3859048,34.8894 69.8300952,54.6546 C69.8426667,55.377 69.8510476,56.0994 69.8510476,56.847" id="Fill-1395" fill="#5D2523"></path>
                    <path d="M3.97257143,63.7938 L82.1752381,63.7938 C82.5481905,62.853 82.887619,61.8954 83.1474286,60.9126 L83.1474286,60.8748 C83.7466667,58.6698 84.0567619,56.3052 84.0567619,53.907 L84.0567619,36.6408 C84.0567619,36.12 84.0567619,35.616 84.0358095,35.133 C83.960381,33.8562 83.8220952,32.5962 83.5706667,31.3572 L83.5706667,31.2816 L83.5539048,31.164 C83.2815238,29.7318 82.9169524,28.3374 82.4308571,26.9808 C82.0662857,25.8804 81.6220952,24.7758 81.1192381,23.73 C79.7489524,20.8278 77.9344762,18.1776 75.7135238,15.855 C74.8251429,14.8848 73.8571429,13.9944 72.8346667,13.1418 C72.2940952,12.6798 71.7158095,12.2346 71.1333333,11.8062 C67.8899048,9.408 64.1645714,7.6104 60.1081905,6.5058 C57.288,5.7288 54.2582857,5.3046 51.1657143,5.3046 L35.0030476,5.3046 C31.8937143,5.3046 28.8807619,5.7288 26.0228571,6.5058 C24.728,6.8544 23.4918095,7.2786 22.255619,7.7826 L22.2388571,7.7826 C19.8251429,8.7486 17.5664762,9.9876 15.479619,11.4618 L14.6666667,12.0582 C13.8746667,12.642 13.1245714,13.2804 12.3912381,13.9566 L12.0811429,14.2296 C10.4384762,15.6996 8.97180952,17.3838 7.69790476,19.1814 C5.8792381,21.7392 4.45447619,24.5448 3.48647619,27.5436 C3.35238095,28.0098 3.19733333,28.4718 3.08,28.938 L3.0632381,28.9968 L2.98361905,29.3454 C2.50171429,31.2018 2.21257143,33.138 2.0952381,35.133 C2.07847619,35.616 2.07847619,36.12 2.07847619,36.6408 L2.07847619,53.907 C2.07847619,56.3262 2.38438095,58.6866 2.98361905,60.9126 C3.256,61.8954 3.59542857,62.853 3.97257143,63.7938" id="Fill-1399" fill="#804B4C"></path>
                    <path d="M15.0270476,57.6408 C13.6860952,56.5404 12.0015238,55.8558 10.1367619,55.8558 C5.84152381,55.8558 2.36342857,59.3418 2.36342857,63.6468 C2.36342857,67.9476 5.84152381,71.4336 10.1367619,71.4336 C12.0015238,71.4336 13.6860952,70.749 15.0270476,69.6528 L15.0270476,57.6408" id="Fill-1400" fill="#FCB692"></path>
                    <path d="M70.8819048,57.6408 C72.2228571,56.5404 73.911619,55.8558 75.776381,55.8558 C80.0674286,55.8558 83.5455238,59.3418 83.5455238,63.6468 C83.5455238,67.9476 80.0674286,71.4336 75.776381,71.4336 C73.911619,71.4336 72.2228571,70.749 70.8819048,69.6528 L70.8819048,57.6408" id="Fill-1401" fill="#FCB692"></path>
                    <path d="M72.8430476,64.3986 L71.9420952,40.0512 L71.8415238,37.8672 C71.3889524,29.0052 64.0891429,22.05 55.2304762,22.05 L30.888,22.05 C22.0460952,22.05 14.7420952,29.0052 14.2937143,37.8672 L14.1889524,40.0512 L13.288,64.3986 C12.2361905,77.91 23.4289524,89.6826 38.2045714,89.6826 L47.9306667,89.6826 C62.7062857,89.6826 73.8822857,77.91 72.8430476,64.3986" id="Fill-1402" fill="#FCB692"></path>
                    <path d="M83.4533333,30.5046 L83.4533333,45.6624 L56.6678095,45.6624 C48.5340952,45.6624 41.0415238,42.8148 35.1329524,38.0562 L35.1161905,38.0562 C33.5908571,36.834 32.1786667,35.4816 30.8838095,34.0074 C28.1055238,30.891 25.9013333,27.2916 24.3969524,23.3226 L24.2041905,22.743 L24.1832381,22.743 C23.4708571,20.8068 22.9470476,18.795 22.6201905,16.7244 C22.2933333,14.8848 22.1382857,12.9906 22.1382857,11.0544 L22.1382857,5.46 C22.1382857,2.4612 24.5897143,-1.77635684e-15 27.5817143,-1.77635684e-15 L53.0179048,-1.77635684e-15 C62.0735238,-1.77635684e-15 70.2617143,4.0488 75.8601905,10.416 L75.8601905,10.4328 L76.7904762,11.5164 C80.0129524,15.5652 82.2548571,20.4414 83.0845714,25.7838 C83.336,27.3126 83.4533333,28.9002 83.4533333,30.5046" id="Fill-1403" fill="#804B4C"></path>
                    <path d="M23.3493333,71.5764 C20.9230476,71.5764 18.9577143,70.098 18.9577143,68.271 C18.9577143,66.4482 20.9230476,64.9698 23.3493333,64.9698 C25.775619,64.9698 27.7451429,66.4482 27.7451429,68.271 C27.7451429,70.098 25.775619,71.5764 23.3493333,71.5764" id="Fill-1404" fill="#F99D8D"></path>
                    <path d="M65.3169524,71.5764 C62.8906667,71.5764 60.9211429,70.098 60.9211429,68.271 C60.9211429,66.4482 62.8906667,64.9698 65.3169524,64.9698 C67.7432381,64.9698 69.7127619,66.4482 69.7127619,68.271 C69.7127619,70.098 67.7432381,71.5764 65.3169524,71.5764" id="Fill-1405" fill="#F99D8D"></path>
                    <path d="M43.4217143,66.3768 L42.4830476,66.3768 C41.2217143,66.3768 40.1908571,65.3436 40.1908571,64.0794 C40.1908571,62.8152 41.2217143,61.782 42.4830476,61.782 L43.4217143,61.782 C44.6830476,61.782 45.7139048,62.8152 45.7139048,64.0794 C45.7139048,65.3436 44.6830476,66.3768 43.4217143,66.3768" id="Fill-1406" fill="#F99D8D"></path>
                    <path d="M14.5241905,12.1674 C14.528381,12.1338 14.5367619,12.1002 14.5493333,12.0582 L15.048,11.2266 L15.3580952,11.4618 C15.3748571,11.4786 15.391619,11.4996 15.4041905,11.5164 L14.6666667,12.0582 C14.6205714,12.096 14.5702857,12.1296 14.5241905,12.1674" id="Fill-1407" fill="#E5C8BF"></path>
                    <path d="M14.7211429,12.4068 C14.5912381,12.4068 14.5032381,12.3354 14.5241905,12.1674 C14.5702857,12.1296 14.6205714,12.096 14.6666667,12.0582 L15.4041905,11.5164 C15.6765714,11.9364 15.056381,12.4068 14.7211429,12.4068" id="Fill-1408" fill="#9D605A"></path>
                    <path d="M2.95009524,29.4798 C2.9207619,29.4336 2.89142857,29.3874 2.86209524,29.3454 L2.94171429,28.9968 L2.95847619,28.938 C3.07580952,28.4718 3.23085714,28.0098 3.36495238,27.5436 C4.33295238,24.5448 5.76190476,21.7392 7.57638095,19.1814 C8.85028571,17.3838 10.3169524,15.6996 11.959619,14.2296 L12.2697143,13.9566 C12.2613333,13.9986 12.2571429,14.0364 12.2529524,14.0784 L12.0811429,14.2296 C10.4384762,15.6996 8.97180952,17.3838 7.69790476,19.1814 C5.8792381,21.7392 4.45447619,24.5448 3.48647619,27.5436 C3.35238095,28.0098 3.19733333,28.4718 3.08,28.938 L3.0632381,28.9968 L2.98361905,29.3454 C2.9752381,29.3874 2.96266667,29.4336 2.95009524,29.4798" id="Fill-1409" fill="#E5C8BF"></path>
                    <path d="M14.5912381,35.448 C14.5493333,35.4396 14.511619,35.4312 14.4697143,35.4228 C13.6609524,35.2464 12.8689524,35.0532 12.056,34.8432 C8.65333333,33.9654 4.87352381,32.3904 2.95009524,29.4798 C2.96266667,29.4336 2.9752381,29.3874 2.98361905,29.3454 L3.0632381,28.9968 L3.08,28.938 C3.19733333,28.4718 3.35238095,28.0098 3.48647619,27.5436 C4.45447619,24.5448 5.8792381,21.7392 7.69790476,19.1814 C8.97180952,17.3838 10.4384762,15.6996 12.0811429,14.2296 L12.2529524,14.0784 C12.1942857,14.5614 12.2194286,15.0654 12.3074286,15.582 C12.9653333,19.4334 17.0384762,21.0966 20.5165714,21.9324 C21.7318095,22.2222 22.9470476,22.491 24.1832381,22.743 L24.2041905,22.743 L24.3969524,23.3226 C24.4011429,23.3394 24.4053333,23.352 24.4137143,23.3646 C19.4312381,25.4814 15.6765714,29.967 14.5912381,35.448" id="Fill-1410" fill="#9D605A"></path>
                    <path d="M35.1329524,38.0562 L35.1161905,38.0562 C28.2060952,37.7076 21.3337143,36.981 14.5912381,35.448 C15.6765714,29.967 19.4312381,25.4814 24.4137143,23.3646 C25.9180952,27.3168 28.1139048,30.9036 30.8838095,34.0074 C32.1786667,35.4816 33.5908571,36.834 35.1161905,38.0562 L35.1329524,38.0562" id="Fill-1411" fill="#FDBE9B"></path>
                    <path d="M47.4278095,38.3082 C43.3253333,38.3082 39.239619,38.2536 35.1329524,38.0562 L35.1161905,38.0562 C33.5908571,36.834 32.1786667,35.4816 30.8838095,34.0074 C28.1139048,30.9036 25.9180952,27.3168 24.4137143,23.3646 C24.4053333,23.352 24.4011429,23.3394 24.3969524,23.3226 L24.2041905,22.743 C24.5687619,22.8396 24.9165714,22.9194 25.3062857,22.9782 L25.3230476,22.9782 C33.1969524,24.5532 41.2217143,25.347 49.2548571,25.347 C52.8419048,25.347 56.4289524,25.1874 60.007619,24.8724 C61.2228571,24.7758 62.4590476,24.6414 63.6742857,24.4272 C66.7291429,23.9232 69.6834286,22.995 72.1348571,21 C73.6811429,19.7232 74.9173333,17.8668 75.592,15.855 C76.1912381,14.0742 76.3462857,12.1758 75.8601905,10.4328 L76.7904762,11.5164 C80.0129524,15.5652 82.2548571,20.4414 83.0845714,25.7838 C82.8540952,26.1912 82.6026667,26.5944 82.3135238,26.9808 C81.9070476,27.6024 81.4251429,28.182 80.9222857,28.7238 C78.1775238,31.668 74.9340952,33.7176 71.3805714,35.1498 L71.3638095,35.1498 C64.6045714,37.8588 56.8019048,38.2662 49.4811429,38.304 C48.7980952,38.3082 48.1108571,38.3082 47.4278095,38.3082" id="Fill-1412" fill="#9D605A"></path>
                    <path d="M72.9897143,66.36 C72.6838095,64.8312 73.216,63.1806 74.4144762,61.9416 C75.424381,60.8916 76.7527619,60.312 78.0601905,60.312 C78.3032381,60.312 78.5420952,60.3288 78.7767619,60.3708 L78.4457143,62.3784 C78.32,62.3574 78.1942857,62.349 78.064381,62.349 C77.3017143,62.349 76.5013333,62.706 75.8769524,63.357 C75.143619,64.1172 74.808381,65.0874 74.984381,65.961 L72.9897143,66.36" id="Fill-1413" fill="#F99D8D"></path>
                    <path d="M13.2209524,66.276 L11.6495238,65.961 C11.8255238,65.0874 11.4902857,64.1172 10.7611429,63.357 C10.1325714,62.706 9.33219048,62.349 8.56952381,62.349 C8.44380952,62.349 8.31390476,62.3574 8.19238095,62.3784 L7.85714286,60.3708 C8.09180952,60.3288 8.33485714,60.312 8.57371429,60.312 C9.88533333,60.312 11.2095238,60.8916 12.2194286,61.9416 C12.6971429,62.433 13.0659048,62.9874 13.3215238,63.5754 L13.288,64.3986 C13.2419048,65.0286 13.2167619,65.6544 13.2209524,66.276" id="Fill-1414" fill="#F99D8D"></path>
                    <path d="M13.6441905,66.36 L13.2209524,66.276 C13.2167619,65.6544 13.2419048,65.0286 13.288,64.3986 L13.3215238,63.5754 C13.7070476,64.47 13.8285714,65.4402 13.6441905,66.36" id="Fill-1415" fill="#F99D8D"></path>
                    <path d="M22.8045714,57.729 C22.8129524,58.2792 22.9009524,58.8126 23.047619,59.2998 C23.5504762,60.9882 24.7824762,62.1684 26.2072381,62.1432 C28.0426667,62.1096 29.488381,60.0768 29.4422857,57.603 C29.4255238,56.763 29.2369524,55.9818 28.9310476,55.314 C28.327619,54.0204 27.2464762,53.1636 26.039619,53.1846 C24.2041905,53.2224 22.7584762,55.251 22.8045714,57.729" id="Fill-1433" fill="#67413A"></path>
                    <path d="M28.344381,49.896 C25.3398095,49.3164 22.3059048,49.707 19.5485714,51.03 C19.2133333,50.1186 18.8822857,49.203 18.5470476,48.2916 C21.7024762,46.7754 25.1805714,46.326 28.6167619,46.9938 C28.5245714,47.9598 28.4365714,48.93 28.344381,49.896" id="Fill-1434" fill="#804B4C"></path>
                    <path d="M63.3264762,57.729 C63.3180952,58.2792 63.2300952,58.8126 63.0834286,59.2998 C62.5805714,60.9882 61.3485714,62.1684 59.9238095,62.1432 C58.088381,62.1096 56.6426667,60.0768 56.6887619,57.603 C56.7055238,56.763 56.8940952,55.9818 57.2,55.314 C57.8034286,54.0204 58.8845714,53.1636 60.0914286,53.1846 C61.9268571,53.2224 63.3725714,55.251 63.3264762,57.729" id="Fill-1435" fill="#67413A"></path>
                    <path d="M57.7866667,49.896 C60.7912381,49.3164 63.8251429,49.707 66.5824762,51.03 C66.9177143,50.1186 67.2487619,49.203 67.584,48.2916 C64.4285714,46.7754 60.9504762,46.326 57.5142857,46.9938 C57.6064762,47.9598 57.6944762,48.93 57.7866667,49.896" id="Fill-1436" fill="#804B4C"></path>
                    <path d="M56.2194286,73.0884 C54.9790476,79.2162 49.5649524,83.832 43.0739048,83.832 C36.5660952,83.832 31.152,79.2162 29.911619,73.0884 C29.6392381,71.82 30.5527619,70.6566 31.776381,70.4046 L32.2331429,70.3626 L53.8979048,70.3626 L54.3546667,70.4046 C55.5782857,70.6566 56.4918095,71.82 56.2194286,73.0884" id="Fill-1437" fill="#A81313"></path>
                    <path d="M54.3546667,70.4046 C51.9702857,74.1048 47.8049524,76.5576 43.0739048,76.5576 C38.3260952,76.5576 34.1607619,74.1048 31.776381,70.4046 L32.2331429,70.3626 L53.8979048,70.3626 L54.3546667,70.4046" id="Fill-1438" fill="#FFFEFE"></path>
                </g>
                <g id="illustation_woman_body_02" transform="translate(30.000000, 81.000000)">
                    <path d="M160.060574,101.78226 C159.809754,98.3854795 158.309016,94.7923288 155.286639,90.89 L99.8136885,90.89 C97.6859016,93.7728767 96.0304918,96.9356849 94.9394262,100.353356 C91.6662295,110.631438 104.04418,120.483356 112.208361,125.07089 C118.023197,128.375753 124.853852,130.01774 131.45877,129.056781 C138.21418,128.095822 144.401066,124.477603 149.622295,119.981986 C156.390246,114.149384 160.545492,108.337671 160.060574,101.78226" id="Fill-2404-Copy" fill="#1DCBEE"></path>
                    <path d="M153.902951,89.1393836 C152.736639,87.7522603 151.478361,86.4528767 150.115574,85.2078082 C148.731885,84.0212329 147.26877,82.9182192 145.73459,81.9280137 C143.782377,80.6578767 141.704754,79.6133562 139.526803,78.7359589 C138.08877,78.1719178 136.629836,77.6914384 135.120738,77.3237671 C134.38082,77.1232192 133.611639,76.9811644 132.842459,76.8432877 C131.337541,76.5591781 129.778279,76.4171233 128.244098,76.3628082 C127.349508,76.3335616 126.459098,76.3335616 125.59377,76.3878767 C115.423033,76.9811644 105.825,82.6090411 99.8136885,90.89 L155.286639,90.89 C154.843525,90.2967123 154.371148,89.7034247 153.902951,89.1393836" id="Fill-2405-Copy" fill="#FCB692"></path>
                    <path d="M134.844836,286.357397 C152.49418,303.215959 165.331967,303.007055 170.595,301.874795 C171.539754,301.674247 172.145902,300.92637 172.354918,300.061507 C172.476148,299.543425 172.492869,298.996096 172.25877,298.469658 C169.336721,291.935137 163.655656,287.155411 157.648525,283.725205 C151.394754,280.178014 144.798197,278.076438 140.571885,276.965068 L140.425574,276.894041 L140.137131,276.843904 C138.08459,276.313288 135.931721,277.015205 134.556393,278.556918 L133.954426,279.354932 C133.210328,280.574932 132.997131,281.970411 133.227049,283.278151 L133.49459,284.305959 C133.757951,285.078904 134.217787,285.776644 134.844836,286.357397" id="Fill-2406-Copy" fill="#F1359D"></path>
                    <path d="M159.195246,286.056575 C160.173443,287.807192 159.090738,289.96726 157.096721,290.167808 C152.903852,290.589795 139.447377,285.442397 134.940984,280.754589 C134.456066,280.144589 134.531311,279.308973 134.556393,278.556918 C135.931721,277.015205 138.08459,276.313288 140.137131,276.843904 L140.425574,276.894041 L140.571885,276.965068 C144.798197,278.076438 151.394754,280.178014 157.648525,283.725205 C158.22123,284.468904 158.73959,285.241849 159.195246,286.056575" id="Fill-2407-Copy" fill="#F5BFB3"></path>
                    <path d="M153.008361,195.534247 L148.736066,270.255068 L148.318033,277.704589 C148.242787,279.187808 147.599016,280.541507 146.587377,281.531712 C145.575738,282.51774 144.217131,283.136096 142.712213,283.207123 C139.476639,283.307397 136.763607,280.767123 136.663279,277.508219 L136.466803,270.255068 L134.564754,195.609452 C134.439344,190.625 138.118033,186.133562 143.084262,185.761712 C148.736066,185.343904 153.351148,189.981575 153.008361,195.534247" id="Fill-2408-Copy" fill="#F5BFB3"></path>
                    <path d="M155.470574,195.676301 L151.077049,272.715959 L134.063115,272.715959 L132.09,195.676301 C131.939508,189.308904 136.780328,183.756233 142.904508,183.313356 C146.286393,183.066849 149.618115,184.274315 152.013443,186.643288 C154.40877,189.01226 155.667049,192.321301 155.470574,195.676301" id="Fill-2409-Copy" fill="#1DCBEE"></path>
                    <path d="M157.957869,101.005137 C154.709754,97.5456849 150.07377,95.5527397 145.249672,95.5527397 L145.124262,95.5527397 C140.354508,95.5861644 135.923361,97.4871918 132.666885,100.871438 C129.443852,104.226438 127.805164,108.596712 128.026721,113.163356 L131.793197,190.520548 C132.060738,196.077397 137.478443,200.518699 143.865984,200.518699 C150.132295,200.518699 155.403689,196.328082 155.863525,190.888219 L162.43082,113.756644 C162.82377,109.114795 161.205984,104.460411 157.957869,101.005137" id="Fill-2410-Copy" fill="#1DCBEE"></path>
                    <path d="M119.653525,286.357397 C102.008361,303.215959 89.1663934,303.007055 83.9033607,301.874795 C82.9627869,301.674247 82.3566393,300.92637 82.147623,300.061507 C82.0222131,299.543425 82.0054918,298.996096 82.2437705,298.469658 C85.1658197,291.935137 90.8468852,287.155411 96.8498361,283.725205 C103.107787,280.178014 109.704344,278.076438 113.930656,276.965068 L114.072787,276.894041 L114.36541,276.843904 C116.417951,276.313288 118.566639,277.015205 119.946148,278.556918 L120.548115,279.354932 C121.292213,280.574932 121.50541,281.970411 121.275492,283.278151 L121.007951,284.305959 C120.74041,285.078904 120.284754,285.776644 119.653525,286.357397" id="Fill-2411-Copy" fill="#F1359D"></path>
                    <path d="M95.3072951,286.056575 C94.3290984,287.807192 95.4118033,289.96726 97.4058197,290.167808 C101.598689,290.589795 115.055164,285.442397 119.557377,280.754589 C120.042295,280.144589 119.967049,279.308973 119.946148,278.556918 C118.566639,277.015205 116.417951,276.313288 114.36541,276.843904 L114.072787,276.894041 L113.930656,276.965068 C109.704344,278.076438 103.107787,280.178014 96.8498361,283.725205 C96.2813115,284.468904 95.7629508,285.241849 95.3072951,286.056575" id="Fill-2412-Copy" fill="#F5BFB3"></path>
                    <path d="M101.49418,195.534247 L105.766475,270.255068 L106.184508,277.704589 C106.259754,279.187808 106.899344,280.541507 107.910984,281.531712 C108.926803,282.51774 110.28123,283.136096 111.790328,283.207123 C115.021721,283.307397 117.738934,280.767123 117.839262,277.508219 L118.035738,270.255068 L119.937787,195.609452 C120.059016,190.625 116.380328,186.133562 111.418279,185.761712 C105.766475,185.343904 101.147213,189.981575 101.49418,195.534247" id="Fill-2413-Copy" fill="#F5BFB3"></path>
                    <path d="M99.0319672,195.676301 L103.425492,272.715959 L120.435246,272.715959 L122.412541,195.676301 C122.558852,189.308904 117.722213,183.756233 111.598033,183.313356 C108.216148,183.066849 104.884426,184.274315 102.489098,186.643288 C100.09377,189.01226 98.8354918,192.321301 99.0319672,195.676301" id="Fill-2414-Copy" fill="#1DCBEE"></path>
                    <path d="M96.5404918,101.005137 C99.7927869,97.5456849 104.42877,95.5527397 109.248689,95.5527397 L109.374098,95.5527397 C114.148033,95.5861644 118.57918,97.4830137 121.835656,100.871438 C125.058689,104.226438 126.693197,108.596712 126.47582,113.159178 L122.709344,190.520548 C122.437623,196.077397 117.024098,200.518699 110.636557,200.518699 C104.366066,200.518699 99.0988525,196.328082 98.6348361,190.888219 L92.0717213,113.756644 C91.6745902,109.114795 93.292377,104.460411 96.5404918,101.005137" id="Fill-2415-Copy" fill="#1DCBEE"></path>
                    <path d="M169.859262,78.5145205 C169.779836,77.8585616 169.587541,77.2443836 169.353443,76.6510959 C169.587541,77.2443836 169.779836,77.8585616 169.859262,78.5145205" id="Fill-2423-Copy" fill="#F5BFB3"></path>
                    <path d="M108.964426,37.7991096 L108.813934,38.5260959 L103.421311,62.3662329 L100.21918,76.5884247 C99.1908197,81.1676027 95.5790164,84.1340411 91.8292623,83.4947945 C88.0586066,82.8513699 85.6381967,78.8362329 86.202541,74.2027397 L87.8495902,60.1393151 L90.7047541,35.4426712 C91.0433607,32.5723288 92.1804098,29.8858219 93.8943443,27.9012329 L94.3290984,27.399863 C95.4494262,26.2884932 96.7704098,25.4361644 98.175,24.9765753 C99.3204098,24.5713014 100.616311,24.4626712 101.857869,24.6757534 C104.512377,25.1269863 106.773934,26.990411 108.048934,29.7855479 C109.123279,32.1461644 109.440984,35.0039726 108.964426,37.7991096" id="Fill-2426-Copy" fill="#FFEF7D"></path>
                    <path d="M87.9833607,91.8300685 L84.6809016,118.937466 L84.7812295,119.56 L84.6683607,118.937466 L87.9666393,91.8300685 L83.1007377,91.1615753 L79.7940984,118.31911 C79.3468033,121.623973 81.5790984,124.598767 84.8690164,125.116849 C88.1380328,125.630753 91.1771311,123.487397 91.812541,120.236849 L97.0672131,93.0876712 L92.1762295,92.415 L87.9833607,91.8300685" id="Fill-2427-Copy" fill="#FCB692"></path>
                    <path d="M84.6432787,78.5145205 C84.7227049,77.8585616 84.9108197,77.2443836 85.1490984,76.6510959 C84.9108197,77.2443836 84.7227049,77.8585616 84.6432787,78.5145205" id="Fill-2430-Copy" fill="#F5BFB3"></path>
                    <path d="M87.9666393,91.8300685 L87.9833607,91.8300685 L92.1762295,92.415 L97.0672131,93.0876712 L99.424918,80.8417123 C99.8136885,78.8320548 99.3872951,76.7889726 98.2251639,75.1344521 C96.1935246,72.2390411 92.1636885,71.2488356 88.9991803,72.6276027 C88.5059016,72.8406849 88.0335246,73.1039041 87.5945902,73.4339726 C86.4742623,74.2779452 85.654918,75.3893151 85.1490984,76.6510959 C84.9108197,77.2443836 84.7227049,77.8585616 84.6432787,78.5145205 L83.1007377,91.1615753 L87.9666393,91.8300685" id="Fill-2431-Copy" fill="#FFEF7D"></path>
                    <path d="M87.8872131,117.136712 C86.5244262,116.752329 84.952623,117.03226 83.2386885,117.888767 C81.7379508,118.640822 80.7639344,119.576712 80.337541,120.675548 C79.8986066,121.807808 80.0616393,123.011096 80.2163115,124.172603 C80.3709836,125.296507 80.5131148,126.35774 80.1285246,127.301986 C79.5265574,128.768493 77.8669672,129.482945 76.0777869,130.14726 L75.2835246,130.719658 L75.2459016,131.530205 C75.442377,131.993973 75.9607377,132.319863 76.3954918,132.436849 C77.2566393,132.670822 78.2640984,132.562192 79.2381148,132.273904 L79.6310656,132.115137 C80.605082,131.659726 81.4829508,131.020479 82.3608197,130.397945 L83.0798361,130.289315 C84.3255738,131.622123 77.6537705,133.439589 78.6152459,135.286301 C79.5390984,137.05363 83.6065574,134.450685 85.3539344,132.89226 L86.1941803,131.948014 L86.1858197,132.512055 C85.692541,134.020342 84.2085246,135.319726 84.5847541,137.087055 L84.6056557,137.174795 L84.6558197,137.245822 C85.0027869,137.713767 85.3957377,137.776438 85.667459,137.747192 L85.7803279,137.726301 C86.7334426,137.517397 87.3563115,136.347534 87.7952459,135.582945 C89.0577049,133.37274 90.0359016,130.991233 90.5709836,128.496918 C91.0266393,126.374452 91.3861475,124.04726 90.9430328,121.853767 C90.6169672,120.25774 89.6554918,117.633904 87.8872131,117.136712" id="Fill-2432-Copy" fill="#FCB692"></path>
                    <path d="M152.561066,29.3426712 L149.325492,48.9378767 L145.433607,74.6497945 L144.355082,81.1676027 C143.853443,84.7064384 141.290902,87.2884932 138.322869,87.2467123 L127.265902,87.0670548 L116.188033,87.2467123 C113.22418,87.2884932 110.661639,84.7064384 110.16,81.1676027 L109.081475,74.6497945 L104.784098,46.6190411 L101.933115,29.3426712 C101.62377,27.0656164 102.702295,24.805274 104.516557,24.0239726 L107.48041,22.724589 L118.039918,18.1286986 C118.44123,17.9657534 118.867623,17.8696575 119.289836,17.8696575 L119.444508,17.8487671 L127.265902,17.9866438 L135.070574,17.8487671 L135.221066,17.8696575 C135.647459,17.8696575 136.090574,17.9657534 136.496066,18.1286986 L144.605902,21.6675342 L147.01377,22.724589 L149.998525,24.0239726 C151.808607,24.805274 152.887131,27.0656164 152.561066,29.3426712" id="Fill-2433-Copy" fill="#FCB692"></path>
                    <path d="M128.127049,55.5392466 C118.976311,55.5392466 110.711803,55.1632192 104.775738,47.8473973 C102.255,44.7765068 100.189918,41.1833562 98.6306557,37.2517808 L102.045984,77.0689041 C102.296803,79.960137 104.713033,82.1786986 107.61418,82.1786986 L146.867459,82.1786986 C149.776967,82.1786986 152.197377,79.9476027 152.435656,77.0480137 L155.29918,42.1693836 C153.627049,45.1984932 151.612131,47.9434932 149.317131,50.2623288 C143.615164,56.1617808 136.220164,55.5392466 128.127049,55.5392466" id="Fill-2434-Copy" fill="#FFD97C"></path>
                    <path d="M156.427869,26.8316438 C155.905328,25.6868493 155.002377,24.7467808 153.827705,24.2871918 L147.527951,21.8304795 L138.046967,18.1412329 C137.507705,17.9532192 136.951721,17.8487671 136.370656,17.8487671 L135.216885,17.8696575 L135.204344,17.8654795 L135.062213,17.8487671 L129.92459,17.944863 L127.261721,17.995 L124.586311,17.944863 L119.440328,17.8487671 L119.294016,17.8654795 L119.285656,17.8696575 L118.127705,17.8487671 C117.571721,17.8487671 116.990656,17.9532192 116.472295,18.1412329 L106.97459,21.8304795 L100.695738,24.2871918 C99.6130328,24.705 98.7686066,25.519726 98.2460656,26.5391781 C97.8990984,27.1575342 97.7068033,27.8594521 97.6440984,28.5906164 C97.6106557,29.0000685 97.6064754,29.4178767 97.6691803,29.8356849 L98.4007377,36.7128082 L98.6306557,37.2517808 C100.189918,41.1833562 102.255,44.7765068 104.775738,47.8473973 C110.711803,55.1632192 118.976311,55.5392466 128.127049,55.5392466 C136.220164,55.5392466 143.615164,56.1617808 149.317131,50.2623288 C151.612131,47.9434932 153.627049,45.1984932 155.29918,42.1693836 L155.558361,41.7181507 L156.833361,29.8356849 C156.891885,29.4136986 156.891885,28.9958904 156.858443,28.5864384 C156.808279,27.9764384 156.670328,27.3789726 156.427869,26.8316438" id="Fill-2435-Copy" fill="#FFEF7D"></path>
                    <path d="M147.406721,21.7970548 L147.00123,22.5449315 C144.476311,26.7815068 136.600574,29.8649315 127.257541,29.8649315 C117.910328,29.8649315 110.013689,26.7815068 107.472049,22.5449315 L107.083279,21.7970548 L117.274918,17.9239726 L118.123525,17.8487671 L119.281475,17.8654795 L119.298197,17.8654795 L124.519426,17.944863 L124.577951,17.944863 L127.257541,17.9824658 L129.932951,17.944863 L130.029098,17.944863 L135.212705,17.8654795 L136.366475,17.8487671 L137.215082,17.9239726 L147.406721,21.7970548" id="Fill-2436-Copy" fill="#FCB692"></path>
                    <polygon id="Fill-2437-Copy" fill="#FCB692" points="119.360902 22.5658219 135.141639 22.5658219 135.141639 6.72671233 119.360902 6.72671233"></polygon>
                    <path d="M135.141639,17.3139726 C130.526557,15.4213014 124.703361,13.014726 119.360902,10.7961644 L119.360902,8.00938356 L135.141639,8.00938356 L135.141639,17.3139726 Z" id="Fill-2438-Copy" fill="#EDA280"></path>
                    <path d="" id="Fill-2421-Copy" fill="#FCB692"></path>
                    <path d="" id="Fill-2422-Copy" fill="#F5BFB3"></path>
                    <path d="" id="Fill-2428-Copy" fill="#FCB692"></path>
                    <path d="" id="Fill-2429-Copy" fill="#F5BFB3"></path>
                    <g id="Fill-1556-Copy" stroke-width="1" transform="translate(98.237705, -0.000000)">
                        <mask id="mask-2" fill="white">
                            <use xlink:href="#path-1"></use>
                        </mask>
                        <use id="Mask" fill="#D8D8D8" opacity="0" xlink:href="#path-1"></use>
                        <path d="M59.4791191,-16.7123288 L0.0682994758,-16.7123288 C-0.980962819,-3.27143836 10.1846929,8.43972603 24.924529,8.43972603 L34.62707,8.43972603 C49.366906,8.43972603 60.5158405,-3.27143836 59.4791191,-16.7123288 Z" fill="#FCB692" mask="url(#mask-2)"></path>
                    </g>
                    <g id="Group" stroke-width="1" transform="translate(188.438440, 30.903221) rotate(-70.000000) translate(-188.438440, -30.903221) translate(165.446637, -10.877601)">
                        <path d="M18.413642,11.6199746 L18.4011011,12.3594952 L17.431265,36.7803856 L16.8669207,51.3493582 C16.6871666,56.0413445 13.6731502,59.6094267 9.87323221,59.6637417 C6.04405188,59.7180568 2.93388795,56.2084678 2.64962565,51.545728 L1.70905188,37.4196322 L0.0327404042,12.6143582 C-0.15537435,9.73148147 0.47167483,6.88202942 1.79683876,4.61750887 L2.13544532,4.04511161 C3.03421581,2.74990613 4.17962565,1.67196092 5.47552729,0.965865032 C6.52896991,0.355865032 7.78306827,0.0174403745 9.04552729,0.000728045709 C11.7334781,-0.036874694 14.2960191,1.38367325 16.0601175,3.90305681 C17.5483142,6.02970065 18.3760191,8.78305681 18.413642,11.6199746" id="Fill-1264" fill="#FFEF7D"></path>
                        <path d="M17.6570027,60.7792897 L39.0184781,77.7924404 L39.603724,78.0305911 L39.0184781,77.8049746 L17.6444617,60.7918239 L14.5259371,64.5855226 L35.9333961,81.6320979 C38.5168388,83.7420294 42.2164289,83.3994267 44.3860191,80.8716869 C46.5388879,78.3564815 46.3006093,74.6463445 43.8676584,72.4027143 L23.4843797,53.7057965 L20.3491338,57.5162075 L17.6570027,60.7792897" id="Fill-1265" fill="#FCB692"></path>
                        <path d="" id="Fill-1266" fill="#FCB692"></path>
                        <path d="" id="Fill-1267" fill="#F5BFB3"></path>
                        <path d="M4.55585516,56.6429883 C4.0374945,56.2335363 3.61528139,55.7488787 3.23487155,55.2391527 C3.61528139,55.7488787 4.0374945,56.2335363 4.55585516,56.6429883" id="Fill-1268" fill="#F5BFB3"></path>
                        <path d="M17.6444617,60.7918239 L17.6570027,60.7792897 L20.3491338,57.5162075 L23.4843797,53.7057965 L14.2834781,45.2827828 C12.7743797,43.8956596 10.813806,43.1895637 8.79052729,43.310728 C5.26233057,43.5238102 2.30683876,46.4359335 1.82192073,49.8536048 C1.74667483,50.3842212 1.72159286,50.9231938 1.7717568,51.4705226 C1.90552729,52.866002 2.42388795,54.1444952 3.23487155,55.2391527 C3.61528139,55.7488787 4.0374945,56.2335363 4.55585516,56.6429883 L14.5259371,64.5855226 L17.6444617,60.7918239" id="Fill-1269" fill="#FFEF7D"></path>
                    </g>
                    <path d="M227.805634,14.0878431 C226.765392,15.0448983 226.180679,16.5287204 226.013876,18.4389813 C225.867922,20.1109821 226.152278,21.4319318 226.866936,22.3683898 C227.602492,23.3382919 228.709839,23.8317309 229.779577,24.304263 C230.820065,24.76843 231.797872,25.1991456 232.399696,26.0269024 C233.335867,27.306164 233.077117,29.0910071 232.705568,30.9636121 L232.77677,31.9459396 L233.445383,32.4016822 C233.942619,32.4770093 234.494113,32.2012203 234.819972,31.8961318 C235.46751,31.2859542 235.906078,30.3705957 236.169144,29.3883258 L236.240104,28.9703316 C236.361091,27.9002558 236.277338,26.8217846 236.20612,25.7474955 L236.490132,25.0787342 C238.278402,24.7195575 236.332438,31.3488045 238.41328,31.4996463 C240.402196,31.6421121 240.309439,26.8141209 239.899563,24.5066542 C239.82846,24.0928155 239.506658,23.6956537 239.535838,23.2943725 L240.012222,23.5995996 C241.036125,24.8078152 241.366549,26.7516025 243.07142,27.3621865 L243.154992,27.3914614 L243.242735,27.3831165 C243.823517,27.333056 244.082522,27.032136 244.199473,26.7855324 L244.241238,26.6768579 C244.558633,25.7572984 243.8899,24.6118451 243.467754,23.8384602 C242.247291,21.6019145 240.730193,19.5241602 238.887238,17.7598544 C237.315921,16.2547595 235.523148,14.7329062 233.421307,13.9592311 C231.891936,13.3988382 229.155024,12.8424168 227.805634,14.0878431" id="Fill-1270" fill="#FCB692" transform="translate(235.150360, 22.875715) rotate(-70.000000) translate(-235.150360, -22.875715) "></path>
                </g>
            </g>
        </g>
    </g>
</svg>