<?xml version="1.0" encoding="utf-8"?>
<!-- Generator: Adobe Illustrator 22.1.0, SVG Export Plug-In . SVG Version: 6.00 Build 0)  -->
<svg version="1.1" id="Layer_1" xmlns="http://www.w3.org/2000/svg" xmlns:xlink="http://www.w3.org/1999/xlink" x="0px" y="0px"
	 width="130px" height="184px" viewBox="0 0 130 184" style="enable-background:new 0 0 130 184;" xml:space="preserve">
<style type="text/css">
	.st0{fill:#595553;}
	.st1{fill:#2E3571;}
	.st2{fill:none;}
	.st3{fill:#68C5DB;}
</style>
<path class="st0" d="M126.26,173.45v-3.29h0.97c1.05,0,1.64,0.75,1.64,1.64s-0.6,1.64-1.64,1.64H126.26z M125.14,174.42h2.09
	c1.64,0,2.77-1.05,2.77-2.62s-1.12-2.62-2.77-2.62h-2.09V174.42z M119.31,173.97c0.37,0.37,0.9,0.52,1.42,0.52
	c1.05,0,1.87-0.6,1.87-1.79v-3.51h-1.12v3.51c0,0.52-0.3,0.82-0.82,0.82c-0.37,0-0.6-0.15-0.82-0.37L119.31,173.97z M116.02,174.42
	h1.12v-5.23h-1.12V174.42z M112.51,170.83c0,0.45-0.37,0.75-0.75,0.75h-1.2v-1.42h1.2C112.13,170.16,112.51,170.38,112.51,170.83z
	 M112.36,174.42h1.27l-1.2-2.02c0.6-0.15,1.12-0.6,1.12-1.57s-0.67-1.72-1.72-1.72h-2.47v5.23h1.12v-1.87h0.82L112.36,174.42z
	 M104.51,174.42h1.12v-4.26h1.5v-0.97h-4.19v0.97h1.5v4.26H104.51z M96.73,173.67c0.52,0.52,1.2,0.82,2.24,0.82
	c1.42,0,2.09-0.75,2.09-1.64c0-1.2-1.12-1.42-1.94-1.64c-0.6-0.15-1.05-0.22-1.05-0.6c0-0.3,0.3-0.52,0.75-0.52
	c0.52,0,1.05,0.15,1.5,0.6l0.6-0.82c-0.52-0.45-1.2-0.75-2.02-0.75c-1.2,0-2.02,0.67-2.02,1.57c0,1.2,1.12,1.42,1.94,1.57
	c0.6,0.15,1.05,0.3,1.05,0.67c0,0.3-0.3,0.6-0.9,0.6c-0.75,0-1.27-0.3-1.64-0.67L96.73,173.67z M91.05,173.45v-3.29h0.97
	c1.05,0,1.64,0.75,1.64,1.64s-0.6,1.64-1.64,1.64H91.05z M89.93,174.42h2.09c1.64,0,2.77-1.05,2.77-2.62s-1.12-2.62-2.77-2.62h-2.09
	V174.42z M83.8,174.42h3.66v-0.97h-2.62v-1.2h2.54v-0.97h-2.54v-1.12h2.62v-0.97H83.8V174.42z M79.02,174.42h1.2l1.5-5.23h-1.27
	l-0.9,3.81l-0.97-3.81h-0.9L76.7,173l-0.9-3.81h-1.27l1.5,5.23h1.2l0.9-3.59L79.02,174.42z M68.4,173.67
	c0.52,0.52,1.2,0.82,2.24,0.82c1.42,0,2.09-0.75,2.09-1.64c0-1.2-1.12-1.42-1.94-1.64c-0.6-0.15-1.05-0.22-1.05-0.6
	c0-0.3,0.3-0.52,0.75-0.52c0.52,0,1.05,0.15,1.5,0.6l0.6-0.82c-0.52-0.45-1.2-0.75-2.02-0.75c-1.2,0-2.02,0.67-2.02,1.57
	c0,1.2,1.12,1.42,1.94,1.57c0.6,0.15,1.05,0.3,1.05,0.67c0,0.3-0.3,0.6-0.9,0.6c-0.75,0-1.27-0.3-1.64-0.67L68.4,173.67z
	 M65.19,170.83c0,0.45-0.37,0.75-0.75,0.75h-1.2v-1.42h1.2C64.89,170.16,65.19,170.38,65.19,170.83z M65.11,174.42h1.27l-1.2-2.02
	c0.6-0.15,1.12-0.6,1.12-1.57s-0.67-1.72-1.72-1.72h-2.47v5.23h1.12v-1.87h0.82L65.11,174.42z M55.99,174.42h3.66v-0.97h-2.62v-1.2
	h2.54v-0.97h-2.54v-1.12h2.62v-0.97h-3.66V174.42z M48.59,171.8c0,1.64,1.27,2.69,2.77,2.69c0.97,0,1.72-0.37,2.24-0.97v-2.02h-2.54
	v0.97h1.42v0.6c-0.22,0.22-0.67,0.37-1.12,0.37c-0.97,0-1.64-0.75-1.64-1.72s0.67-1.72,1.64-1.72c0.52,0,0.97,0.3,1.27,0.67
	l0.9-0.52c-0.37-0.6-1.05-1.12-2.17-1.12C49.79,169.11,48.59,170.16,48.59,171.8z M41.34,171.8c0,1.64,1.27,2.69,2.77,2.69
	c0.97,0,1.72-0.37,2.24-0.97v-2.02h-2.47v0.97h1.42v0.6c-0.22,0.22-0.67,0.37-1.12,0.37c-0.97,0-1.64-0.75-1.64-1.72
	s0.67-1.72,1.64-1.72c0.52,0,0.97,0.3,1.27,0.67l0.9-0.52c-0.37-0.6-1.05-1.12-2.17-1.12C42.61,169.11,41.34,170.16,41.34,171.8z
	 M35.51,174.42h3.66v-0.97h-2.62v-1.2h2.54v-0.97h-2.54v-1.12h2.62v-0.97h-3.66V174.42z M29.83,174.42h3.29v-0.97h-2.24v-4.26h-1.12
	v5.23H29.83z M23.7,174.42h3.66v-0.97h-2.62v-1.2h2.54v-0.97h-2.54v-1.12h2.62v-0.97H23.7V174.42z M18.02,173.45v-1.2h1.42
	c0.45,0,0.67,0.3,0.67,0.6c0,0.37-0.22,0.6-0.67,0.6H18.02z M18.02,171.28v-1.12h1.42c0.37,0,0.6,0.22,0.6,0.6s-0.22,0.6-0.6,0.6
	h-1.42V171.28z M16.89,174.42h2.84c0.97,0,1.5-0.6,1.5-1.42c0-0.67-0.45-1.2-0.97-1.27c0.52-0.07,0.9-0.52,0.9-1.2
	c0-0.67-0.52-1.35-1.5-1.35h-2.77V174.42z M7.25,174.42h3.66v-0.97H8.3v-1.2h2.54v-0.97H8.3v-1.12h2.62v-0.97H7.25V174.42z
	 M1.12,173.45v-3.29h0.97c1.05,0,1.64,0.75,1.64,1.64s-0.6,1.64-1.64,1.64H1.12z M0,174.42h2.09c1.64,0,2.77-1.05,2.77-2.62
	s-1.12-2.62-2.77-2.62H0V174.42z M58.16,182.79v-3.29h0.97c1.05,0,1.64,0.75,1.64,1.64s-0.6,1.64-1.64,1.64H58.16z M57.04,183.84
	h2.09c1.64,0,2.77-1.05,2.77-2.62s-1.12-2.62-2.77-2.62h-2.09V183.84z M51.21,183.39c0.37,0.37,0.9,0.52,1.42,0.52
	c1.05,0,1.87-0.6,1.87-1.79v-3.51h-1.2v3.51c0,0.52-0.3,0.82-0.82,0.82c-0.37,0-0.6-0.15-0.82-0.37L51.21,183.39z M47.92,183.84
	h1.12v-5.23h-1.12V183.84z M42.98,183.84h1.12v-4.26h1.5v-0.97h-4.19v0.97h1.5v4.26H42.98z M32.07,183.84h3.66v-0.97h-2.62v-1.2
	h2.54v-0.97h-2.54v-1.2h2.62v-0.97h-3.66V183.84z M26.01,182.79v-3.29h0.97c1.05,0,1.64,0.75,1.64,1.64s-0.6,1.64-1.64,1.64H26.01z
	 M24.89,183.84h2.09c1.64,0,2.77-1.05,2.77-2.62s-1.12-2.62-2.77-2.62h-2.09V183.84z M17.64,183.84h1.05v-5.23h-1.12v3.36
	l-2.39-3.36h-1.12v5.23h1.12v-3.51L17.64,183.84z M9.27,179.58l0.9,2.39H8.45L9.27,179.58z M10.76,183.84h1.2l-2.02-5.23H8.52
	l-2.02,5.23h1.2l0.3-0.9h2.32L10.76,183.84z M2.02,183.84h1.42l2.02-5.23H4.19l-1.42,4.04l-1.42-4.04H0.07L2.02,183.84z"/>
<path class="st1" d="M8.22,120.89v-5.16h3.14c2.54,0,3.14,0.97,3.14,2.47c0,1.5-0.52,2.69-3.29,2.69H8.22 M8.22,109.98v-4.56h2.84
	c2.47,0,2.84,0.97,2.84,2.24s-0.45,2.32-2.99,2.32H8.22 M11.14,99.36H0v27.44h11.06c9.49,0,11.81-3.74,11.81-8.6
	c0-2.47-1.87-5.61-4.78-6.06c2.99-0.45,4.04-3.36,4.04-5.08C22.13,102.35,19.29,99.36,11.14,99.36 M47.17,99.36H26.84v27.44h20.33
	v-6.58H34.99v-4.41H45.9v-5.98H34.99v-3.96h12.19V99.36 M75.65,99.36h-8.3v15.4c0,4.34-0.9,5.68-4.04,5.68
	c-3.14,0-4.04-1.27-4.04-5.68v-15.4h-8.3v15.4c0,8.52,3.51,12.48,12.33,12.48c8.9,0,12.41-3.96,12.41-12.48v-15.4 M88.73,112v-6.06
	h2.17c2.92,0,3.66,1.05,3.66,3.06c0,1.87-0.67,2.99-3.66,2.99H88.73 M91.2,99.36H80.51v27.44h8.22v-10.17l5.98,10.17h10.24
	l-7.92-10.02c4.11-0.75,5.91-4.04,5.91-7.77C102.86,105.04,101.89,99.36,91.2,99.36 M117.81,98.91c-8.82,0-11.59,4.34-11.44,9.19
	c0.3,9.49,15.4,6.2,15.4,10.32c0,0.97-0.45,2.54-3.51,2.54c-3.06,0-4.19-1.42-4.19-4.26h-8.22c0,6.73,3.44,10.54,12.63,10.54
	c8.82,0,11.44-5.01,11.44-8.97c0-10.02-14.73-6.88-15.25-10.39c-0.22-1.5,0.37-2.69,3.06-2.69c2.84,0,3.81,1.12,3.81,3.66h8.07
	C129.48,103.25,126.71,98.91,117.81,98.91 M35.14,151.17l2.77-10.09l2.77,10.09H35.14 M8.22,146.91v-6.06h2.17
	c2.92,0,3.66,1.05,3.66,3.06c0,1.87-0.67,2.99-3.66,2.99H8.22 M42.83,134.27h-9.57l-9.42,26.61l-7.33-9.27
	c4.11-0.75,5.91-4.04,5.91-7.77c0-3.96-0.97-9.64-11.66-9.64H0.07v27.44H8.3v-10.17l5.98,10.17h10.24h7.7l1.5-4.49h8.6l1.35,4.49
	h8.67L42.83,134.27 M62.72,134.27h-8.3v27.44h16.75v-6.58h-8.52L62.72,134.27 M82.83,134.27h-8.3v27.44h16.75v-6.58h-8.52
	L82.83,134.27 M116.17,134.27h-9.42l-4.93,11.21l-4.63-11.21h-9.19l9.57,18.91v8.52H106v-8.52L116.17,134.27"/>
<polygon class="st2" points="25.72,76.94 19.21,70.51 12.78,76.94 "/>
<path class="st1" d="M61.9,41.95v34.99H36.26L19.21,59.89L7.48,71.63V22.51h34.99v-7.48H0v69.37h69.37v-3.74V41.95H61.9z
	 M19.21,70.51l6.43,6.43H12.71L19.21,70.51z"/>
<path class="st3" d="M69.37,27h7.48v7.48h-7.48V27z M84.32,12.12h7.48v7.48h-7.48V12.12z M49.94,7.56h7.48v7.48h-7.48V7.56z
	 M34.99,0.09h7.48v7.48h-7.48V0.09z M34.76,44.42L19.29,28.94L7.48,40.68V51.3l11.81-11.74l15.47,15.47l41.27-41.34l-5.23-5.31
	L34.76,44.42z"/>
</svg>
