<?xml version="1.0" encoding="UTF-8"?>
<svg width="172px" height="31px" viewBox="0 0 172 31" version="1.1" xmlns="http://www.w3.org/2000/svg" xmlns:xlink="http://www.w3.org/1999/xlink">
    <!-- Generator: sketchtool 62 (101010) - https://sketch.com -->
    <title>51AF5E7A-C21C-4429-8F70-A46E22F32086</title>
    <desc>Created with sketchtool.</desc>
    <g id="assets" stroke="none" stroke-width="1" fill="none" fill-rule="evenodd">
        <g id="NMA-icons" transform="translate(-62.000000, -995.000000)" fill="#420B0B" fill-rule="nonzero">
            <path d="M75.152,1017.88 L81.648,1000.536 C81.872,999.96 82.096,999.192 82.256,998.552 L82.256,1011.736 C82.256,1014.968 82.16,1015.704 81.584,1016.312 C81.168,1016.76 80.336,1017.016 79.92,1017.112 L79.92,1017.784 C81.2,1017.72 83.376,1017.688 84.528,1017.688 C85.68,1017.688 87.952,1017.72 89.232,1017.784 L89.232,1017.112 C88.048,1016.92 87.696,1016.568 87.376,1016.152 C86.896,1015.544 86.96,1014.456 86.96,1012.856 L86.9609195,1000.7784 C86.9703892,998.069569 87.0611613,997.360774 87.6,996.792 C88.016,996.344 88.88,996.056 89.296,995.992 L89.296,995.32 C88.016,995.384 86.256,995.416 85.104,995.416 C84.528,995.416 82.224,995.384 81.744,995.32 L76.4,1009.528 C76.208,1010.04 75.984,1010.744 75.92,1011.192 C75.856,1010.712 75.664,1010.04 75.472,1009.496 L70.576,995.32 C70.126,995.38 68.297875,995.411875 67.5965078,995.415625 L67.472,995.416 C66.32,995.416 64.112,995.384 62.832,995.32 L62.832,995.992 C64.016,996.184 64.368,996.504 64.688,996.952 C65.104,997.528 65.104,998.584 65.104,1000.216 L65.104,1011.736 C65.104,1014.968 65.04,1015.704 64.464,1016.312 C64.048,1016.76 63.184,1017.016 62.768,1017.112 L62.768,1017.784 C64.048,1017.72 64.912,1017.688 66.064,1017.688 C67.216,1017.688 68.08,1017.72 69.36,1017.784 L69.36,1017.112 C68.176,1016.92 67.856,1016.568 67.536,1016.152 C67.056,1015.576 67.088,1014.488 67.088,1012.92 L67.088,998.424 C67.12,998.68 67.28,999.352 67.664,1000.536 L73.424,1017.88 L75.152,1017.88 Z M98.8053333,1018.168 C105.973333,1018.168 107.349333,1012.568 107.349333,1009.784 C107.349333,1005.048 104.597333,1001.72 99.2213333,1001.72 C92.0213333,1001.72 90.6773333,1007.288 90.6773333,1010.04 C90.6773333,1014.776 93.4293333,1018.168 98.8053333,1018.168 Z M99.0293333,1016.824 C96.4053333,1016.824 95.6053333,1013.816 95.6053333,1009.944 C95.6053333,1006.712 96.1813333,1003.064 98.9973333,1003.064 C101.621333,1003.064 102.421333,1006.104 102.421333,1009.944 C102.421333,1013.176 101.845333,1016.824 99.0293333,1016.824 Z M128.410667,1017.784 L128.410667,1017.112 C127.738667,1016.952 126.714667,1016.728 126.234667,1015.992 C125.946667,1015.512 125.818667,1015.032 125.818667,1012.792 L125.818667,1008.184 C125.818667,1007.128 125.818667,1005.624 125.306667,1004.376 C124.698667,1002.936 123.450667,1001.72 120.730667,1001.72 C118.938667,1001.72 117.274667,1002.36 115.834667,1003.8 L115.962667,1001.816 L115.610667,1001.528 C115.162667,1001.752 113.946667,1001.976 113.434667,1002.04 C111.770667,1002.296 109.754667,1002.392 108.954667,1002.424 L108.954667,1003.16 C111.388267,1003.5344 111.357847,1004.33468 111.354805,1007.42939 L111.354667,1010.392 C111.354667,1013.432 111.418667,1015.416 110.778667,1016.184 C110.362667,1016.664 109.946667,1016.952 108.890667,1017.112 L108.890667,1017.784 C110.298667,1017.72 112.730667,1017.688 113.434667,1017.688 C114.810667,1017.688 116.474667,1017.72 117.754667,1017.784 L117.754667,1017.112 C117.082667,1017.016 116.602667,1016.728 116.314667,1016.088 L116.260825,1015.98261 C116.088354,1015.64353 115.930667,1015.233 115.930667,1012.536 L115.930667,1004.44 C116.506667,1004.088 117.434667,1003.928 118.202667,1003.928 C120.794667,1003.928 121.018667,1005.72 121.114667,1006.904 C121.178667,1007.448 121.242667,1008.92 121.242667,1009.816 C121.242667,1011.192 121.210667,1012.088 121.210667,1012.952 C121.178667,1014.104 121.210667,1015.8 120.506667,1016.504 C120.250667,1016.76 120.122667,1016.984 119.450667,1017.112 L119.450667,1017.784 C120.570667,1017.72 123.130667,1017.688 123.866667,1017.688 C125.242667,1017.688 127.450667,1017.72 128.410667,1017.784 Z M154.981333,1017.784 L154.981333,1017.112 C153.285333,1016.696 152.965333,1015.864 152.133333,1013.272 L146.213333,995 C145.413333,995.384 143.429333,995.8 142.693333,995.864 L135.909333,1013.4 C134.885333,1016.056 134.661333,1016.792 133.125333,1017.112 L133.125333,1017.784 C134.245333,1017.688 135.141333,1017.688 136.197333,1017.688 C137.381333,1017.688 138.341333,1017.72 139.493333,1017.784 L139.493333,1017.112 C139.141333,1017.048 138.341333,1016.888 137.925333,1016.504 C137.733333,1016.312 137.669333,1016.12 137.669333,1015.768 C137.669333,1015.416 137.925333,1014.52 138.277333,1013.464 L139.717333,1009.272 L146.021333,1009.272 L147.557333,1014.2 C147.685333,1014.584 147.941333,1015.32 147.941333,1015.8 C147.941333,1016.184 147.813333,1016.408 147.557333,1016.6 C147.173333,1016.92 146.245333,1017.112 146.149333,1017.112 L146.149333,1017.784 C147.653333,1017.688 149.765333,1017.688 150.757333,1017.688 C151.717333,1017.688 153.957333,1017.72 154.981333,1017.784 Z M145.541333,1007.672 L140.293333,1007.672 L142.277333,1001.912 C142.693333,1000.728 142.949333,999.8 143.045333,999.224 C143.141333,1000.184 143.525333,1001.144 143.749333,1001.912 L145.541333,1007.672 Z M164.554667,1017.784 L164.554667,1017.112 C163.882667,1016.952 162.602667,1016.728 162.154667,1015.992 C161.834667,1015.512 161.642667,1015.032 161.642667,1012.824 L161.642667,1004.664 C162.154667,1004.44 162.698667,1003.928 164.138667,1003.928 L164.266667,1003.928 C164.138667,1004.152 164.042667,1004.44 164.042667,1004.952 C164.042667,1006.36 164.970667,1006.904 166.186667,1006.904 C167.498667,1006.904 168.490667,1006.072 168.490667,1004.44 C168.490667,1003.128 167.658667,1001.72 165.514667,1001.72 C163.530667,1001.72 162.282667,1002.936 161.546667,1004.024 L161.674667,1001.816 L161.322667,1001.528 C160.874667,1001.752 159.658667,1001.976 159.146667,1002.04 C157.482667,1002.296 155.466667,1002.392 154.666667,1002.424 L154.666667,1003.16 C157.100267,1003.5344 157.069847,1004.33468 157.066805,1007.42939 L157.066667,1010.392 C157.066667,1013.432 157.130667,1015.416 156.490667,1016.184 C156.074667,1016.664 155.658667,1016.952 154.602667,1017.112 L154.602667,1017.784 C156.010667,1017.72 158.634667,1017.688 159.338667,1017.688 C160.714667,1017.688 163.594667,1017.72 164.554667,1017.784 Z M175.28,1025.496 C176.784,1025.496 178.064,1025.368 179.216,1025.048 C185.008,1023.448 185.104,1019.8 185.104,1019.032 C185.104,1016.216 183.44,1014.776 179.664,1014.776 C177.072,1014.776 176.816,1014.872 175.376,1014.872 L175.129889,1014.8703 C174.355265,1014.85691 173.648,1014.74248 173.648,1013.816 C173.648,1013.56 173.776,1013.048 174.256,1012.6 C174.8,1012.664 175.312,1012.696 175.888,1012.696 C180.976,1012.696 182.992,1010.424 182.992,1007.288 C182.992,1005.592 182,1004.28 181.616,1004.024 C182.16,1003.576 182.896,1003.448 183.568,1003.448 L183.696,1003.448 C183.568,1003.608 183.472,1004.056 183.472,1004.376 C183.472,1005.048 183.888,1005.944 185.2,1005.944 C186.736,1005.944 187.088,1004.728 187.088,1003.992 C187.088,1002.744 186.416,1001.72 184.624,1001.72 C182.864,1001.72 181.808,1002.552 181.104,1003.48 C179.984,1002.424 178.416,1001.72 176.144,1001.72 C171.44,1001.72 168.976,1004.056 168.976,1007.288 C168.976,1010.424 170.832,1011.768 173.296,1012.408 C171.44,1013.208 170.224,1014.136 170.224,1015.864 C170.224,1016.792 170.672,1017.72 171.92,1018.232 C171.184,1018.392 167.792,1018.84 167.792,1021.624 C167.792,1023.992 170.192,1025.496 175.28,1025.496 Z M176.016,1011.512 C173.744,1011.512 173.392,1009.208 173.392,1007.16 C173.392,1005.048 173.744,1002.904 176.016,1002.904 C178.256,1002.904 178.608,1005.016 178.608,1007.064 C178.608,1009.208 178.352,1011.512 176.016,1011.512 Z M175.888,1024.024 C173.264,1024.024 171.28,1023.576 171.28,1021.016 C171.28,1019.32 172.784,1018.648 172.848,1018.552 L177.84,1018.552 C179.568,1018.552 181.552,1018.328 181.552,1020.44 C181.552,1023.096 178.96,1024.024 175.888,1024.024 Z M194.485333,1017.976 C198.197333,1017.976 199.893333,1016.312 200.533333,1015.64 L200.181333,1015.064 C199.989333,1015.224 198.741333,1015.672 196.949333,1015.672 C191.986963,1015.672 191.43268,1011.8496 191.413853,1009.07585 L191.413333,1008.792 L191.413333,1008.792 L200.981333,1008.792 L200.981333,1008.536 C200.981333,1007.256 200.789333,1005.528 199.861333,1004.12 C199.445333,1003.512 198.037333,1001.72 194.677333,1001.72 C188.629333,1001.72 186.709333,1006.456 186.709333,1010.104 C186.709333,1017.176 191.925333,1017.976 194.485333,1017.976 Z M191.413333,1007.864 C191.413333,1005.88 191.637333,1003 194.133333,1003 C196.053333,1003 196.341333,1004.696 196.341333,1006.904 L196.341333,1007.16 L191.413333,1007.864 Z M221.402667,1017.784 L221.402667,1017.112 C220.730667,1016.952 219.706667,1016.728 219.226667,1015.992 C218.938667,1015.512 218.810667,1015.032 218.810667,1012.792 L218.810667,1008.184 C218.810667,1007.128 218.810667,1005.624 218.298667,1004.376 C217.690667,1002.936 216.442667,1001.72 213.722667,1001.72 C211.930667,1001.72 210.266667,1002.36 208.826667,1003.8 L208.954667,1001.816 L208.602667,1001.528 C208.154667,1001.752 206.938667,1001.976 206.426667,1002.04 C204.762667,1002.296 202.746667,1002.392 201.946667,1002.424 L201.946667,1003.16 C204.380267,1003.5344 204.349847,1004.33468 204.346805,1007.42939 L204.346667,1010.392 C204.346667,1013.432 204.410667,1015.416 203.770667,1016.184 C203.354667,1016.664 202.938667,1016.952 201.882667,1017.112 L201.882667,1017.784 C203.290667,1017.72 205.722667,1017.688 206.426667,1017.688 C207.802667,1017.688 209.466667,1017.72 210.746667,1017.784 L210.746667,1017.112 C210.074667,1017.016 209.594667,1016.728 209.306667,1016.088 L209.252825,1015.98261 C209.080354,1015.64353 208.922667,1015.233 208.922667,1012.536 L208.922667,1004.44 C209.498667,1004.088 210.426667,1003.928 211.194667,1003.928 C213.786667,1003.928 214.010667,1005.72 214.106667,1006.904 C214.170667,1007.448 214.234667,1008.92 214.234667,1009.816 C214.234667,1011.192 214.202667,1012.088 214.202667,1012.952 C214.170667,1014.104 214.202667,1015.8 213.498667,1016.504 C213.242667,1016.76 213.114667,1016.984 212.442667,1017.112 L212.442667,1017.784 C213.562667,1017.72 216.122667,1017.688 216.858667,1017.688 C218.234667,1017.688 220.442667,1017.72 221.402667,1017.784 Z M233.568,1016.28 L233.28,1015.64 C232.704,1015.864 232.096,1015.928 231.456,1015.928 C228.192,1015.928 228.384,1013.72 228.384,1011.224 L228.384,1003.672 L233.536,1003.8 L233.536,1001.976 L228.384,1002.168 C228.448,1000.632 228.416,999.448 228.576,997.784 L226.688,997.784 C226.496,999.032 225.984,1000.184 225.184,1001.016 C224.32,1001.912 223.04,1002.552 221.824,1002.808 L221.824,1003.672 L223.84,1003.672 C223.808,1006.2 223.744,1007.992 223.744,1010.52 C223.744,1012.152 223.712,1013.656 224,1014.872 C224.652235,1017.63624 226.872028,1017.9587 228.552751,1017.97528 L228.801561,1017.97554 C229.41083,1017.96894 231.951484,1017.86658 233.568,1016.28 Z" id="Logo/MonArgent"></path>
        </g>
    </g>
</svg>