<?xml version="1.0" encoding="utf-8"?>
<!-- Generator: Adobe Illustrator 23.0.0, SVG Export Plug-In . SVG Version: 6.00 Build 0)  -->
<svg version="1.1" id="Layer_1" xmlns="http://www.w3.org/2000/svg" xmlns:xlink="http://www.w3.org/1999/xlink" x="0px" y="0px"
	 width="233px" height="59px" viewBox="0 0 233 59" style="enable-background:new 0 0 233 59;" xml:space="preserve">
<style type="text/css">
	.st0{fill:#515151;}
	.st1{fill:#2C3C78;}
	.st2{fill:none;}
	.st3{fill:#57C7DA;}
</style>
<path class="st0" d="M142.8,58.25v-2.28h0.66c0.75,0,1.14,0.5,1.14,1.14c0,0.62-0.42,1.14-1.14,1.14H142.8z M142.02,58.94h1.44
	c1.14,0,1.94-0.72,1.94-1.82c0-1.1-0.79-1.83-1.94-1.83h-1.44V58.94z M137.94,58.65c0.26,0.26,0.61,0.36,0.98,0.36
	c0.75,0,1.29-0.4,1.29-1.26v-2.45h-0.78v2.44c0,0.36-0.22,0.59-0.57,0.59c-0.25,0-0.44-0.13-0.58-0.26L137.94,58.65z M135.67,58.94
	h0.78v-3.65h-0.78V58.94z M133.2,56.46c0,0.31-0.24,0.5-0.55,0.5h-0.82v-1.01h0.82C132.97,55.95,133.2,56.15,133.2,56.46z
	 M133.13,58.94h0.89l-0.82-1.39c0.39-0.09,0.8-0.44,0.8-1.08c0-0.68-0.46-1.18-1.23-1.18h-1.71v3.65h0.78v-1.31h0.57L133.13,58.94z
	 M127.63,58.94h0.78v-2.97h1.06v-0.68h-2.91v0.68h1.07V58.94z M122.2,58.42c0.34,0.34,0.85,0.58,1.55,0.58
	c0.99,0,1.46-0.5,1.46-1.17c0-0.81-0.77-0.99-1.37-1.13c-0.42-0.1-0.73-0.17-0.73-0.42c0-0.22,0.19-0.37,0.54-0.37
	c0.36,0,0.75,0.13,1.05,0.4l0.43-0.57c-0.36-0.33-0.84-0.51-1.42-0.51c-0.86,0-1.38,0.49-1.38,1.1c0,0.82,0.77,0.98,1.36,1.12
	c0.42,0.1,0.74,0.19,0.74,0.47c0,0.21-0.21,0.41-0.63,0.41c-0.5,0-0.9-0.22-1.16-0.49L122.2,58.42z M118.2,58.25v-2.28h0.66
	c0.75,0,1.14,0.5,1.14,1.14c0,0.62-0.42,1.14-1.14,1.14H118.2z M117.43,58.94h1.44c1.14,0,1.94-0.72,1.94-1.82
	c0-1.1-0.79-1.83-1.94-1.83h-1.44V58.94z M113.14,58.94h2.58v-0.67h-1.81v-0.85h1.77v-0.67h-1.77v-0.79h1.81v-0.67h-2.58V58.94z
	 M109.82,58.94h0.83l1.04-3.65h-0.88l-0.63,2.64l-0.69-2.64h-0.61l-0.7,2.64l-0.64-2.64h-0.87l1.05,3.65h0.83l0.63-2.51
	L109.82,58.94z M102.4,58.42c0.34,0.34,0.85,0.58,1.55,0.58c0.99,0,1.46-0.5,1.46-1.17c0-0.81-0.77-0.99-1.37-1.13
	c-0.42-0.1-0.73-0.17-0.73-0.42c0-0.22,0.19-0.37,0.54-0.37c0.36,0,0.75,0.13,1.05,0.4l0.43-0.57c-0.36-0.33-0.84-0.51-1.42-0.51
	c-0.86,0-1.38,0.49-1.38,1.1c0,0.82,0.77,0.98,1.36,1.12c0.42,0.1,0.74,0.19,0.74,0.47c0,0.21-0.21,0.41-0.63,0.41
	c-0.5,0-0.9-0.22-1.16-0.49L102.4,58.42z M100.18,56.46c0,0.31-0.24,0.5-0.55,0.5h-0.82v-1.01h0.82
	C99.94,55.95,100.18,56.15,100.18,56.46z M100.1,58.94H101l-0.82-1.39c0.39-0.09,0.8-0.44,0.8-1.08c0-0.68-0.47-1.18-1.23-1.18
	h-1.71v3.65h0.78v-1.31h0.57L100.1,58.94z M93.76,58.94h2.58v-0.67h-1.81v-0.85h1.77v-0.67h-1.77v-0.79h1.81v-0.67h-2.58V58.94z
	 M88.55,57.11c0,1.15,0.88,1.89,1.94,1.89c0.66,0,1.18-0.27,1.55-0.69v-1.4h-1.74v0.67h0.97v0.44c-0.16,0.14-0.45,0.28-0.79,0.28
	c-0.66,0-1.14-0.51-1.14-1.2c0-0.69,0.48-1.2,1.14-1.2c0.38,0,0.69,0.2,0.86,0.46L92,56.02c-0.28-0.43-0.76-0.8-1.51-0.8
	C89.43,55.23,88.55,55.96,88.55,57.11z M83.52,57.11c0,1.15,0.88,1.89,1.94,1.89c0.66,0,1.18-0.27,1.55-0.69v-1.4h-1.74v0.67h0.97
	v0.44c-0.16,0.14-0.45,0.28-0.79,0.28c-0.66,0-1.14-0.51-1.14-1.2c0-0.69,0.48-1.2,1.14-1.2c0.38,0,0.69,0.2,0.86,0.46l0.65-0.35
	c-0.28-0.43-0.76-0.8-1.51-0.8C84.39,55.23,83.52,55.96,83.52,57.11z M79.41,58.94h2.58v-0.67h-1.81v-0.85h1.77v-0.67h-1.77v-0.79
	h1.81v-0.67h-2.58V58.94z M75.45,58.94h2.32v-0.68h-1.54v-2.97h-0.78V58.94z M71.17,58.94h2.58v-0.67h-1.81v-0.85h1.77v-0.67h-1.77
	v-0.79h1.81v-0.67h-2.58V58.94z M67.23,58.27v-0.86h1c0.31,0,0.47,0.2,0.47,0.43c0,0.26-0.17,0.43-0.47,0.43H67.23z M67.23,56.75
	v-0.8h0.97c0.26,0,0.43,0.18,0.43,0.4c0,0.24-0.16,0.4-0.43,0.4H67.23z M66.45,58.94h1.98c0.7,0,1.06-0.44,1.06-0.99
	c0-0.46-0.31-0.84-0.7-0.9c0.34-0.07,0.63-0.38,0.63-0.84c0-0.49-0.36-0.93-1.05-0.93h-1.92V58.94z M59.67,58.94h2.58v-0.67h-1.81
	v-0.85h1.77v-0.67h-1.77v-0.79h1.81v-0.67h-2.58V58.94z M55.43,58.25v-2.28h0.66c0.75,0,1.14,0.5,1.14,1.14
	c0,0.62-0.42,1.14-1.14,1.14H55.43z M54.65,58.94h1.44c1.14,0,1.94-0.72,1.94-1.82c0-1.1-0.79-1.83-1.94-1.83h-1.44V58.94z
	 M189.06,58.26v-2.28h0.66c0.75,0,1.14,0.5,1.14,1.14c0,0.62-0.42,1.14-1.14,1.14H189.06z M188.29,58.94h1.44
	c1.14,0,1.94-0.72,1.94-1.82c0-1.1-0.79-1.83-1.94-1.83h-1.44V58.94z M184.21,58.65c0.26,0.26,0.61,0.36,0.98,0.36
	c0.75,0,1.29-0.4,1.29-1.26v-2.45h-0.78v2.44c0,0.36-0.22,0.59-0.57,0.59c-0.25,0-0.44-0.13-0.58-0.26L184.21,58.65z M181.94,58.94
	h0.78v-3.65h-0.78V58.94z M178.51,58.94h0.78v-2.97h1.06v-0.68h-2.91v0.68h1.07V58.94z M170.89,58.94h2.58v-0.67h-1.81v-0.85h1.77
	v-0.67h-1.77v-0.79h1.81v-0.67h-2.58V58.94z M166.64,58.26v-2.28h0.66c0.75,0,1.14,0.5,1.14,1.14c0,0.62-0.42,1.14-1.14,1.14H166.64
	z M165.87,58.94h1.44c1.14,0,1.94-0.72,1.94-1.82c0-1.1-0.79-1.83-1.94-1.83h-1.44V58.94z M160.81,58.94h0.75v-3.65h-0.78v2.36
	l-1.69-2.36h-0.8v3.65h0.78v-2.45L160.81,58.94z M154.97,55.96l0.6,1.67h-1.21L154.97,55.96z M156.01,58.94h0.85l-1.41-3.65h-0.97
	l-1.41,3.65h0.85l0.23-0.63h1.63L156.01,58.94z M149.9,58.94h0.97l1.41-3.65h-0.89l-1.01,2.81l-1.01-2.81h-0.89L149.9,58.94z"/>
<path class="st1" d="M60.64,46.03v-3.59h2.19c1.8,0,2.19,0.69,2.19,1.74c0,1.02-0.39,1.86-2.28,1.86H60.64 M60.64,38.39v-3.2h1.98
	c1.74,0,2.01,0.69,2.01,1.59c0,0.9-0.3,1.62-2.07,1.62H60.64 M62.68,30.97H54.9v19.16h7.72c6.65,0,8.23-2.6,8.23-5.99
	c0-1.71-1.29-3.92-3.35-4.22c2.07-0.3,2.81-2.37,2.81-3.56C70.32,33.06,68.37,30.97,62.68,30.97 M87.83,30.97H73.61v19.16h14.22
	v-4.58h-8.5v-3.08h7.63V38.3h-7.63v-2.75h8.5V30.97 M107.71,30.97h-5.81v10.75c0,3.05-0.63,3.95-2.84,3.95
	c-2.19,0-2.84-0.9-2.84-3.95V30.97h-5.78v10.75c0,5.96,2.46,8.71,8.62,8.71c6.2,0,8.65-2.75,8.65-8.71V30.97 M116.84,39.8v-4.25
	h1.53c2.04,0,2.54,0.75,2.54,2.16c0,1.29-0.48,2.1-2.54,2.1H116.84 M118.58,30.97h-7.48v19.16h5.75v-7.1l4.16,7.1h7.16l-5.54-7.01
	c2.87-0.54,4.1-2.84,4.1-5.42C126.72,34.95,126.06,30.97,118.58,30.97 M137.14,30.67c-6.14,0-8.11,3.02-7.99,6.41
	c0.21,6.65,10.75,4.34,10.75,7.22c0,0.69-0.3,1.77-2.46,1.77c-2.16,0-2.93-1.02-2.93-2.99h-5.75c0,4.7,2.4,7.36,8.8,7.36
	c6.14,0,7.96-3.47,7.96-6.29c0-7.01-10.27-4.82-10.66-7.24c-0.18-1.05,0.27-1.89,2.13-1.89c2.01,0,2.66,0.78,2.66,2.54h5.66
	C145.31,33.69,143.39,30.67,137.14,30.67 M176.04,43.06l1.95-7.07l1.95,7.07H176.04 M157.27,40.1v-4.25h1.53
	c2.04,0,2.54,0.75,2.54,2.16c0,1.29-0.48,2.1-2.54,2.1H157.27 M181.43,31.27h-6.71l-6.57,18.61l-5.1-6.46
	c2.87-0.54,4.1-2.84,4.1-5.42c0-2.75-0.66-6.74-8.14-6.74h-7.48v19.16h5.75v-7.1l4.16,7.1h7.16h5.39l1.02-3.14h5.99l0.93,3.14h6.05
	L181.43,31.27 M195.3,31.27h-5.78v19.16h11.68v-4.58h-5.96L195.3,31.27 M209.37,31.27h-5.78v19.16h11.68v-4.58h-5.96L209.37,31.27
	 M232.63,31.27h-6.56l-3.44,7.81l-3.23-7.81h-6.41l6.71,13.2v5.96h5.9v-5.96L232.63,31.27"/>
<g>
	<polygon class="st2" points="18.29,53.67 13.79,49.16 9.28,53.67 	"/>
	<path class="st1" d="M43.6,29.26v24.41H25.68L13.79,41.78l-8.2,8.2V15.66H30v-5.22H0.37v48.45h48.45v-2.61V29.26H43.6z
		 M13.79,49.16l4.51,4.51H9.28L13.79,49.16z"/>
</g>
<path class="st3" d="M54.04,24.04h-5.22v-5.22h5.22V24.04z M64.47,8.39h-5.22v5.22h5.22V8.39z M40.44,5.22h-5.22v5.22h5.22V5.22z
	 M30,0.01h-5.22v5.22H30V0.01z M24.6,30.97L13.8,20.17l-8.2,8.2v7.38l8.2-8.2L24.6,38.36L53.47,9.49L49.78,5.8L24.6,30.97z"/>
</svg>
