<?xml version="1.0" encoding="utf-8"?>
<!-- Generator: Adobe Illustrator 22.1.0, SVG Export Plug-In . SVG Version: 6.00 Build 0)  -->
<svg version="1.1" id="Layer_1" xmlns="http://www.w3.org/2000/svg" xmlns:xlink="http://www.w3.org/1999/xlink" x="0px" y="0px"
	 viewBox="0 0 587.1 112.7" style="enable-background:new 0 0 587.1 112.7;" xml:space="preserve">
<style type="text/css">
	.st0{fill:#515151;}
	.st1{fill:#9B1C1F;}
	.st2{fill:#E29B28;}
</style>
<g>
	<path class="st0" d="M304.4,111.7c0.7,0.7,1.6,1.1,3,1.1c1.9,0,2.8-1,2.8-2.2c0-1.6-1.5-1.9-2.6-2.2c-0.8-0.2-1.4-0.3-1.4-0.8
		c0-0.4,0.4-0.7,1-0.7c0.7,0,1.4,0.2,2,0.8l0.8-1.1c-0.7-0.6-1.6-1-2.7-1c-1.6,0-2.7,0.9-2.7,2.1c0,1.6,1.5,1.9,2.6,2.1
		c0.8,0.2,1.4,0.4,1.4,0.9c0,0.4-0.4,0.8-1.2,0.8c-1,0-1.7-0.4-2.2-0.9L304.4,111.7z M300.1,107.9c0,0.6-0.5,1-1,1h-1.6v-1.9h1.6
		C299.7,106.9,300.1,107.3,300.1,107.9z M300,112.7h1.7l-1.6-2.7c0.8-0.2,1.5-0.8,1.5-2.1c0-1.3-0.9-2.3-2.3-2.3H296v7h1.5v-2.5h1.1
		L300,112.7z M286.3,109.9c0,1.7,1,2.9,3.1,2.9c2.1,0,3.1-1.2,3.1-2.9v-4.2H291v4.2c0,1-0.5,1.6-1.6,1.6c-1.1,0-1.6-0.7-1.6-1.6
		v-4.2h-1.5V109.9z M278.1,112.7h4.9v-1.3h-3.5v-1.6h3.4v-1.3h-3.4v-1.5h3.5v-1.3h-4.9V112.7z M269.2,111.7c0.7,0.7,1.6,1.1,3,1.1
		c1.9,0,2.8-1,2.8-2.2c0-1.6-1.5-1.9-2.6-2.2c-0.8-0.2-1.4-0.3-1.4-0.8c0-0.4,0.4-0.7,1-0.7c0.7,0,1.4,0.2,2,0.8l0.8-1.1
		c-0.7-0.6-1.6-1-2.7-1c-1.6,0-2.7,0.9-2.7,2.1c0,1.6,1.5,1.9,2.6,2.1c0.8,0.2,1.4,0.4,1.4,0.9c0,0.4-0.4,0.8-1.2,0.8
		c-1,0-1.7-0.4-2.2-0.9L269.2,111.7z M260.8,111.7c0.7,0.7,1.6,1.1,3,1.1c1.9,0,2.8-1,2.8-2.2c0-1.6-1.5-1.9-2.6-2.2
		c-0.8-0.2-1.4-0.3-1.4-0.8c0-0.4,0.4-0.7,1-0.7c0.7,0,1.4,0.2,2,0.8l0.8-1.1c-0.7-0.6-1.6-1-2.7-1c-1.6,0-2.7,0.9-2.7,2.1
		c0,1.6,1.5,1.9,2.6,2.1c0.8,0.2,1.4,0.4,1.4,0.9c0,0.4-0.4,0.8-1.2,0.8c-1,0-1.7-0.4-2.2-0.9L260.8,111.7z M256.3,112.7h1.5v-7
		h-1.5V112.7z M249.8,112.7h1.5V107h2v-1.3h-5.6v1.3h2V112.7z M239.4,111.7c0.7,0.7,1.6,1.1,3,1.1c1.9,0,2.8-1,2.8-2.2
		c0-1.6-1.5-1.9-2.6-2.2c-0.8-0.2-1.4-0.3-1.4-0.8c0-0.4,0.4-0.7,1-0.7c0.7,0,1.4,0.2,2,0.8l0.8-1.1c-0.7-0.6-1.6-1-2.7-1
		c-1.6,0-2.7,0.9-2.7,2.1c0,1.6,1.5,1.9,2.6,2.1c0.8,0.2,1.4,0.4,1.4,0.9c0,0.4-0.4,0.8-1.2,0.8c-1,0-1.7-0.4-2.2-0.9L239.4,111.7z
		 M231.6,112.7h4.9v-1.3h-3.5v-1.6h3.4v-1.3h-3.4v-1.5h3.5v-1.3h-4.9V112.7z M224.3,112.7h1.9l2.7-7h-1.7l-1.9,5.4l-1.9-5.4h-1.7
		L224.3,112.7z M217.5,112.7h1.4v-7h-1.5v4.5l-3.2-4.5h-1.5v7h1.5V108L217.5,112.7z M207.7,112.7h1.5v-7h-1.5V112.7z M194,111.7
		c0.7,0.7,1.6,1.1,3,1.1c1.9,0,2.8-1,2.8-2.2c0-1.6-1.5-1.9-2.6-2.2c-0.8-0.2-1.4-0.3-1.4-0.8c0-0.4,0.4-0.7,1-0.7
		c0.7,0,1.4,0.2,2,0.8l0.8-1.1c-0.7-0.6-1.6-1-2.7-1c-1.6,0-2.7,0.9-2.7,2.1c0,1.6,1.5,1.9,2.6,2.1c0.8,0.2,1.4,0.4,1.4,0.9
		c0,0.4-0.4,0.8-1.2,0.8c-1,0-1.7-0.4-2.2-0.9L194,111.7z M189.8,107.9c0,0.6-0.5,1-1,1h-1.6v-1.9h1.6
		C189.3,106.9,189.8,107.3,189.8,107.9z M189.6,112.7h1.7l-1.6-2.7c0.8-0.2,1.5-0.8,1.5-2.1c0-1.3-0.9-2.3-2.3-2.3h-3.3v7h1.5v-2.5
		h1.1L189.6,112.7z M175.9,109.9c0,1.7,1,2.9,3.1,2.9c2.1,0,3.1-1.2,3.1-2.9v-4.2h-1.5v4.2c0,1-0.5,1.6-1.6,1.6
		c-1.1,0-1.6-0.7-1.6-1.6v-4.2h-1.5V109.9z M171.3,109.2c0,1.3-0.8,2.3-2.1,2.3c-1.3,0-2.1-1-2.1-2.3c0-1.3,0.8-2.3,2.1-2.3
		C170.4,106.9,171.3,107.9,171.3,109.2z M165.5,109.2c0,2.1,1.5,3.6,3.6,3.6c2.1,0,3.7-1.5,3.7-3.6c0-2.1-1.5-3.6-3.7-3.6
		C167,105.5,165.5,107.1,165.5,109.2z M159.9,112.8c1.6,0,2.5-0.8,3-1.7l-1.3-0.6c-0.3,0.6-0.9,1-1.7,1c-1.2,0-2.1-1-2.1-2.3
		c0-1.3,0.9-2.3,2.1-2.3c0.8,0,1.4,0.5,1.7,1l1.3-0.6c-0.5-0.9-1.4-1.7-3-1.7c-2,0-3.7,1.5-3.7,3.6
		C156.2,111.3,157.8,112.8,159.9,112.8z M151.6,112.7h1.4v-7h-1.5v4.5l-3.2-4.5h-1.5v7h1.5V108L151.6,112.7z M142.1,109.2
		c0,1.3-0.8,2.3-2.1,2.3c-1.3,0-2.1-1-2.1-2.3c0-1.3,0.8-2.3,2.1-2.3C141.3,106.9,142.1,107.9,142.1,109.2z M136.4,109.2
		c0,2.1,1.5,3.6,3.6,3.6c2.1,0,3.7-1.5,3.7-3.6c0-2.1-1.5-3.6-3.7-3.6C137.9,105.5,136.4,107.1,136.4,109.2z M130.7,112.8
		c1.6,0,2.5-0.8,3-1.7l-1.3-0.6c-0.3,0.6-0.9,1-1.7,1c-1.2,0-2.1-1-2.1-2.3c0-1.3,0.9-2.3,2.1-2.3c0.8,0,1.4,0.5,1.7,1l1.3-0.6
		c-0.5-0.9-1.4-1.7-3-1.7c-2,0-3.7,1.5-3.7,3.6C127.1,111.3,128.7,112.8,130.7,112.8z M114.4,112.7h4.9v-1.3h-3.5v-1.6h3.4v-1.3
		h-3.4v-1.5h3.5v-1.3h-4.9V112.7z M106.8,112.7h4.4v-1.3h-3v-5.7h-1.5V112.7z"/>
	<g>
		<path class="st0" d="M382.5,109.2c0,1.3-0.8,2.3-2.1,2.3c-1.3,0-2.1-1-2.1-2.3c0-1.3,0.8-2.3,2.1-2.3
			C381.6,106.9,382.5,107.9,382.5,109.2z M376.7,109.2c0,2.1,1.5,3.6,3.6,3.6c2.1,0,3.7-1.5,3.7-3.6c0-2.1-1.5-3.6-3.7-3.6
			C378.2,105.5,376.7,107.1,376.7,109.2z M372.1,112.7h1.5v-7h-1.5v2.7h-3.3v-2.7h-1.5v7h1.5v-2.9h3.3V112.7z M361.3,112.8
			c1.6,0,2.5-0.8,3-1.7l-1.3-0.6c-0.3,0.6-0.9,1-1.7,1c-1.2,0-2.1-1-2.1-2.3c0-1.3,0.9-2.3,2.1-2.3c0.8,0,1.4,0.5,1.7,1l1.3-0.6
			c-0.5-0.9-1.4-1.7-3-1.7c-2,0-3.7,1.5-3.7,3.6C357.7,111.3,359.3,112.8,361.3,112.8z M349.8,112.7h4.9v-1.3h-3.5v-1.6h3.4v-1.3
			h-3.4v-1.5h3.5v-1.3h-4.9V112.7z M345.5,108.6c0.6-0.5,1.1-1.2,1.1-1.9c0-0.7-0.5-1.1-0.9-1.1c-0.4,0-0.8,0.4-0.8,0.8
			c0,0.4,0.3,0.8,0.7,0.8l0.2,0c-0.1,0.4-0.5,0.8-0.8,1L345.5,108.6z M338.9,112.7h4.4v-1.3h-3v-5.7h-1.5V112.7z M325.9,112.7h4.9
			v-1.3h-3.5v-1.6h3.4v-1.3h-3.4v-1.5h3.5v-1.3h-4.9V112.7z M317.7,111.3V107h1.3c1.4,0,2.2,1,2.2,2.2c0,1.2-0.8,2.2-2.2,2.2H317.7z
			 M316.3,112.7h2.8c2.2,0,3.7-1.4,3.7-3.5c0-2.1-1.5-3.5-3.7-3.5h-2.8V112.7z"/>
	</g>
</g>
<path class="st1" d="M153.3,79.8l3.7-13.5l3.7,13.5H153.3 M117.4,74.1V66h2.9c3.9,0,4.9,1.4,4.9,4.1c0,2.5-0.9,4-4.9,4H117.4
	 M163.6,57.2h-12.8l-12.6,35.6l-9.8-12.4c5.5-1,7.9-5.4,7.9-10.4c0-5.3-1.3-12.9-15.6-12.9h-14.3v36.7h11V80.3l8,13.6H139h10.3l2-6
	h11.5l1.8,6h11.6L163.6,57.2 M190.2,57.2h-11.1v36.7h22.4v-8.8h-11.4L190.2,57.2 M217.1,57.2h-11.1v36.7h22.4v-8.8H217L217.1,57.2
	 M261.7,57.2h-12.6l-6.6,15l-6.2-15h-12.3l12.8,25.3v11.4h11.3V82.5L261.7,57.2"/>
<path class="st1" d="M326.7,85.5v-6.9h4.2c3.4,0,4.2,1.3,4.2,3.3c0,1.9-0.7,3.6-4.4,3.6H326.7 M326.7,70.9v-6.1h3.8
	c3.3,0,3.8,1.3,3.8,3c0,1.7-0.6,3.1-4,3.1H326.7 M330.6,56.6h-14.9v36.7h14.8c12.7,0,15.8-5,15.8-11.5c0-3.3-2.5-7.5-6.4-8.1
	c4-0.6,5.4-4.5,5.4-6.8C345.2,60.7,341.5,56.6,330.6,56.6 M423.9,56.6h-11.1v20.6c0,5.8-1.2,7.6-5.4,7.6c-4.2,0-5.4-1.7-5.4-7.6
	V56.6h-11.1v20.6c0,11.4,4.7,16.7,16.5,16.7c11.9,0,16.6-5.3,16.6-16.7V56.6 M441.4,73.6v-8.1h2.9c3.9,0,4.9,1.4,4.9,4.1
	c0,2.5-0.9,4-4.9,4H441.4 M444.8,56.6h-14.3v36.7h11V79.8l8,13.6h13.7l-10.6-13.4c5.5-1,7.9-5.4,7.9-10.4
	C460.4,64.3,459.1,56.6,444.8,56.6 M512.7,56.6h-11v36.7h11V56.6 M546.9,56.6h-27.2v36.7h27.2v-8.8h-16.3v-5.9h14.6v-8h-14.6v-5.3
	h16.3V56.6 M563.5,73.6v-8.1h2.9c3.9,0,4.9,1.4,4.9,4.1c0,2.5-0.9,4-4.9,4H563.5 M566.8,56.6h-14.3v36.7h11V79.8l8,13.6h13.7
	l-10.6-13.4c5.5-1,7.9-5.4,7.9-10.4C582.4,64.3,581.1,56.6,566.8,56.6 M367.9,85.1c-6.3,0-6.7-4.6-6.7-10.1c0-5.4,0.4-10,6.7-10
	c6.3,0,6.7,4.6,6.7,10.1C374.6,80.4,374.2,85.1,367.9,85.1 M367.9,56.1c-14.9,0-17.8,9.7-17.8,18.9c0,9.2,2.8,18.9,17.8,18.9
	c15,0,17.8-9.7,17.8-18.9C385.8,65.8,382.9,56.1,367.9,56.1 M480.3,56.1c-11.8,0-15.5,5.8-15.3,12.3c0.4,12.7,20.6,8.3,20.6,13.8
	c0,1.3-0.6,3.4-4.7,3.4c-4.1,0-5.6-1.9-5.6-5.7h-11c0,9,4.6,14.1,16.9,14.1c11.8,0,15.3-6.7,15.3-12c0-13.4-19.7-9.2-20.4-13.9
	c-0.3-2,0.5-3.6,4.1-3.6c3.8,0,5.1,1.5,5.1,4.9H496C496,61.9,492.3,56.1,480.3,56.1"/>
<path class="st1" d="M292.8,57.2h-27.2v36.7h27.2v-8.8h-16.3v-5.9h14.6v-8h-14.6V66h16.3V57.2"/>
<path class="st1" d="M82.8,56v46.8H48.5L25.7,80L10,95.7V30h46.8V20H0v92.8h92.8v-5V56H82.8z M25.7,94.2l8.6,8.6H17.1L25.7,94.2z"/>
<rect x="92.8" y="36" class="st2" width="10" height="10"/>
<rect x="112.8" y="16.1" class="st2" width="10" height="10"/>
<rect x="66.7" y="10" class="st2" width="10" height="10"/>
<rect x="46.8" class="st2" width="10" height="10"/>
<polygon class="st2" points="46.4,59.3 25.7,38.6 10,54.3 10,68.5 25.7,52.8 46.4,73.5 101.7,18.2 94.6,11.1 "/>
</svg>
