<?xml version="1.0" encoding="utf-8"?>
<!-- Generator: Adobe Illustrator 22.1.0, SVG Export Plug-In . SVG Version: 6.00 Build 0)  -->
<svg version="1.1" id="Layer_1" xmlns="http://www.w3.org/2000/svg" xmlns:xlink="http://www.w3.org/1999/xlink" x="0px" y="0px"
	 width="202px" height="184px" viewBox="0 0 202 184" style="enable-background:new 0 0 202 184;" xml:space="preserve">
<style type="text/css">
	.st0{fill:#525252;}
	.st1{fill:#9C1F21;}
	.st2{fill:#E39C27;}
</style>
<path class="st0" d="M148.07,173.75c0.52,0.52,1.2,0.82,2.24,0.82c1.42,0,2.1-0.75,2.1-1.65c0-1.2-1.12-1.42-1.95-1.65
	c-0.6-0.15-1.05-0.22-1.05-0.6c0-0.3,0.3-0.52,0.75-0.52c0.52,0,1.05,0.15,1.5,0.6l0.6-0.82c-0.52-0.45-1.2-0.75-2.02-0.75
	c-1.2,0-2.02,0.67-2.02,1.57c0,1.2,1.12,1.42,1.95,1.57c0.6,0.15,1.05,0.3,1.05,0.67c0,0.3-0.3,0.6-0.9,0.6
	c-0.75,0-1.27-0.3-1.65-0.67L148.07,173.75z M144.85,170.91c0,0.45-0.37,0.75-0.75,0.75h-1.2v-1.42h1.2
	C144.55,170.23,144.85,170.53,144.85,170.91z M144.77,174.5h1.27l-1.2-2.02c0.6-0.15,1.12-0.6,1.12-1.57c0-0.97-0.67-1.72-1.72-1.72
	h-2.47v5.24h1.12v-1.87h0.82L144.77,174.5z M134.52,172.4c0,1.27,0.75,2.17,2.32,2.17c1.57,0,2.32-0.9,2.32-2.17v-3.14h-1.12v3.14
	c0,0.75-0.37,1.2-1.2,1.2s-1.2-0.52-1.2-1.2v-3.14h-1.12V172.4z M128.39,174.5h3.67v-0.97h-2.62v-1.2h2.54v-0.97h-2.54v-1.12h2.62
	v-0.97h-3.67V174.5z M121.73,173.75c0.52,0.52,1.2,0.82,2.24,0.82c1.42,0,2.1-0.75,2.1-1.65c0-1.2-1.12-1.42-1.95-1.65
	c-0.6-0.15-1.05-0.22-1.05-0.6c0-0.3,0.3-0.52,0.75-0.52c0.52,0,1.05,0.15,1.5,0.6l0.6-0.82c-0.52-0.45-1.2-0.75-2.02-0.75
	c-1.2,0-2.02,0.67-2.02,1.57c0,1.2,1.12,1.42,1.95,1.57c0.6,0.15,1.05,0.3,1.05,0.67c0,0.3-0.3,0.6-0.9,0.6
	c-0.75,0-1.27-0.3-1.65-0.67L121.73,173.75z M115.44,173.75c0.52,0.52,1.2,0.82,2.24,0.82c1.42,0,2.1-0.75,2.1-1.65
	c0-1.2-1.12-1.42-1.95-1.65c-0.6-0.15-1.05-0.22-1.05-0.6c0-0.3,0.3-0.52,0.75-0.52c0.52,0,1.05,0.15,1.5,0.6l0.6-0.82
	c-0.52-0.45-1.2-0.75-2.02-0.75c-1.2,0-2.02,0.67-2.02,1.57c0,1.2,1.12,1.42,1.95,1.57c0.6,0.15,1.05,0.3,1.05,0.67
	c0,0.3-0.3,0.6-0.9,0.6c-0.75,0-1.27-0.3-1.65-0.67L115.44,173.75z M112.15,174.5h1.12v-5.24h-1.12V174.5z M107.21,174.5h1.12v-4.27
	h1.5v-0.97h-4.19v0.97h1.5v4.27H107.21z M99.43,173.75c0.52,0.52,1.2,0.82,2.24,0.82c1.42,0,2.1-0.75,2.1-1.65
	c0-1.2-1.12-1.42-1.95-1.65c-0.6-0.15-1.05-0.22-1.05-0.6c0-0.3,0.3-0.52,0.75-0.52c0.52,0,1.05,0.15,1.5,0.6l0.6-0.82
	c-0.52-0.45-1.2-0.75-2.02-0.75c-1.2,0-2.02,0.67-2.02,1.57c0,1.2,1.12,1.42,1.95,1.57c0.6,0.15,1.05,0.3,1.05,0.67
	c0,0.3-0.3,0.6-0.9,0.6c-0.75,0-1.27-0.3-1.65-0.67L99.43,173.75z M93.59,174.5h3.67v-0.97h-2.54v-1.2h2.54v-0.97h-2.54v-1.12h2.62
	v-0.97h-3.67v5.24H93.59z M88.13,174.5h1.42l2.02-5.24H90.3l-1.42,4.04l-1.42-4.04h-1.27L88.13,174.5z M83.04,174.5h1.05v-5.24
	h-1.12v3.37l-2.39-3.37h-1.12v5.24h1.12v-3.52L83.04,174.5z M75.71,174.5h1.12v-5.24h-1.12V174.5z M65.46,173.75
	c0.52,0.52,1.2,0.82,2.24,0.82c1.42,0,2.1-0.75,2.1-1.65c0-1.2-1.12-1.42-1.95-1.65c-0.6-0.15-1.05-0.22-1.05-0.6
	c0-0.3,0.3-0.52,0.75-0.52c0.52,0,1.05,0.15,1.5,0.6l0.6-0.82c-0.52-0.45-1.2-0.75-2.02-0.75c-1.2,0-2.02,0.67-2.02,1.57
	c0,1.2,1.12,1.42,1.95,1.57c0.6,0.15,1.05,0.3,1.05,0.67c0,0.3-0.3,0.6-0.9,0.6c-0.75,0-1.27-0.3-1.65-0.67L65.46,173.75z
	 M62.31,170.91c0,0.45-0.37,0.75-0.75,0.75h-1.2v-1.42h1.2C61.94,170.23,62.31,170.53,62.31,170.91z M62.16,174.5h1.27l-1.2-2.02
	c0.6-0.15,1.12-0.6,1.12-1.57c0-0.97-0.67-1.72-1.72-1.72h-2.47v5.24h1.12v-1.87h0.82L62.16,174.5z M51.99,172.4
	c0,1.27,0.75,2.17,2.32,2.17c1.57,0,2.32-0.9,2.32-2.17v-3.14h-1.12v3.14c0,0.75-0.37,1.2-1.2,1.2c-0.82,0-1.2-0.52-1.2-1.2v-3.14
	h-1.12V172.4z M48.47,171.88c0,0.97-0.6,1.72-1.57,1.72c-0.97,0-1.57-0.75-1.57-1.72s0.6-1.72,1.57-1.72
	C47.8,170.16,48.47,170.91,48.47,171.88z M44.13,171.88c0,1.57,1.12,2.69,2.69,2.69c1.57,0,2.77-1.12,2.77-2.69
	s-1.12-2.69-2.77-2.69C45.25,169.18,44.13,170.31,44.13,171.88z M39.94,174.57c1.2,0,1.87-0.6,2.24-1.27l-0.97-0.45
	c-0.22,0.45-0.67,0.75-1.27,0.75c-0.9,0-1.57-0.75-1.57-1.72s0.67-1.72,1.57-1.72c0.6,0,1.05,0.37,1.27,0.75l0.97-0.45
	c-0.37-0.67-1.05-1.27-2.24-1.27c-1.5,0-2.77,1.12-2.77,2.69C37.17,173.45,38.37,174.57,39.94,174.57z M33.73,174.5h1.05v-5.24
	h-1.12v3.37l-2.39-3.37h-1.12v5.24h1.12v-3.52L33.73,174.5z M26.62,171.88c0,0.97-0.6,1.72-1.57,1.72s-1.57-0.75-1.57-1.72
	s0.6-1.72,1.57-1.72S26.62,170.91,26.62,171.88z M22.36,171.88c0,1.57,1.12,2.69,2.69,2.69s2.77-1.12,2.77-2.69
	s-1.12-2.69-2.77-2.69C23.48,169.18,22.36,170.31,22.36,171.88z M18.09,174.57c1.2,0,1.87-0.6,2.24-1.27l-0.97-0.45
	c-0.22,0.45-0.67,0.75-1.27,0.75c-0.9,0-1.57-0.75-1.57-1.72s0.67-1.72,1.57-1.72c0.6,0,1.05,0.37,1.27,0.75l0.97-0.45
	c-0.37-0.67-1.05-1.27-2.24-1.27c-1.5,0-2.77,1.12-2.77,2.69C15.4,173.45,16.59,174.57,18.09,174.57z M5.89,174.5h3.67v-0.97H6.94
	v-1.2h2.54v-0.97H6.94v-1.12h2.62v-0.97H5.89V174.5z M0.21,174.5H3.5v-0.97H1.26v-4.27H0.13v5.24H0.21z M49.82,181.31
	c0,0.97-0.6,1.72-1.57,1.72c-0.97,0-1.57-0.75-1.57-1.72s0.6-1.72,1.57-1.72C49.14,179.59,49.82,180.33,49.82,181.31z M45.48,181.31
	c0,1.57,1.12,2.69,2.69,2.69c1.57,0,2.77-1.12,2.77-2.69s-1.12-2.69-2.77-2.69C46.6,178.61,45.48,179.73,45.48,181.31z
	 M42.04,183.93h1.12v-5.24h-1.12v2.02h-2.47v-2.02h-1.12v5.24h1.12v-2.17h2.47V183.93z M33.95,184c1.2,0,1.87-0.6,2.24-1.27
	l-0.97-0.45c-0.22,0.45-0.67,0.75-1.27,0.75c-0.9,0-1.57-0.75-1.57-1.72s0.67-1.72,1.57-1.72c0.6,0,1.05,0.37,1.27,0.75l0.97-0.45
	c-0.37-0.67-1.05-1.27-2.24-1.27c-1.5,0-2.77,1.12-2.77,2.69C31.19,182.88,32.46,184,33.95,184z M25.35,183.93h3.67v-0.97H26.4v-1.2
	h2.54v-0.97H26.4v-1.12h2.62v-0.97h-3.67V183.93z M22.13,180.86c0.45-0.37,0.82-0.9,0.82-1.42s-0.37-0.82-0.67-0.82
	c-0.3,0-0.6,0.3-0.6,0.6c0,0.3,0.22,0.6,0.52,0.6h0.15c-0.07,0.3-0.37,0.6-0.6,0.75L22.13,180.86z M17.12,183.93h3.29v-0.97h-2.24
	v-4.27h-1.12v5.24H17.12z M7.47,183.93h3.67v-0.97H8.51v-1.2h2.54v-0.97H8.51v-1.12h2.62v-0.97H7.47V183.93z M1.33,182.95v-3.29H2.3
	c1.05,0,1.65,0.75,1.65,1.65s-0.6,1.65-1.65,1.65H1.33z M0.21,183.93h2.1c1.65,0,2.77-1.05,2.77-2.62s-1.12-2.62-2.77-2.62h-2.1
	V183.93z"/>
<path class="st1" d="M35.38,116.28l2.77-10.1l2.77,10.1H35.38 M8.51,112.02v-6.06h2.17c2.92,0,3.67,1.05,3.67,3.07
	c0,1.87-0.67,2.99-3.67,2.99H8.51 M43.08,99.37h-9.58l-9.43,26.64l-7.33-9.28c4.12-0.75,5.91-4.04,5.91-7.78
	c0-3.97-0.97-9.65-11.67-9.65H0.28v27.46h8.23v-10.18l5.99,10.18h10.25h7.71l1.5-4.49h8.61l1.35,4.49h8.68L43.08,99.37 M62.99,99.37
	h-8.31v27.46h16.76v-6.58h-8.53L62.99,99.37 M83.12,99.37h-8.31v27.46h16.76v-6.58h-8.53L83.12,99.37 M116.49,99.37h-9.43
	l-4.94,11.22l-4.64-11.22h-9.2l9.58,18.93v8.53h8.46v-8.53L116.49,99.37 M8.44,155.86v-5.16h3.14c2.54,0,3.14,0.97,3.14,2.47
	c0,1.42-0.52,2.69-3.29,2.69H8.44 M8.44,144.87v-4.56h2.84c2.47,0,2.84,0.97,2.84,2.24c0,1.27-0.45,2.32-2.99,2.32H8.44
	 M11.36,134.24H0.21v27.46h11.07c9.5,0,11.82-3.74,11.82-8.61c0-2.47-1.87-5.61-4.79-6.06c2.99-0.45,4.04-3.37,4.04-5.09
	C22.36,137.23,19.51,134.24,11.36,134.24 M81.25,134.24h-8.31v15.41c0,4.34-0.9,5.69-4.04,5.69c-3.14,0-4.04-1.27-4.04-5.69v-15.41
	h-8.31v15.41c0,8.53,3.52,12.5,12.35,12.5c8.9,0,12.42-3.97,12.42-12.5v-15.41 M94.34,146.89v-6.06h2.17c2.92,0,3.67,1.05,3.67,3.07
	c0,1.87-0.67,2.99-3.67,2.99H94.34 M96.81,134.24h-10.7v27.46h8.23v-10.18l5.99,10.18h10.25l-7.93-10.03
	c4.12-0.75,5.91-4.04,5.91-7.78C108.48,139.93,107.58,134.24,96.81,134.24 M147.62,134.24h-8.23v27.46h8.23V134.24 M173.21,134.24
	h-20.35v27.46h20.35v-6.58h-12.2v-4.41h10.92v-5.99h-10.92v-3.97h12.2V134.24 M185.63,146.89v-6.06h2.17c2.92,0,3.67,1.05,3.67,3.07
	c0,1.87-0.67,2.99-3.67,2.99H185.63 M188.1,134.24h-10.7v27.46h8.23v-10.18l5.99,10.18h10.25l-7.93-10.03
	c4.12-0.75,5.91-4.04,5.91-7.78C199.77,139.93,198.87,134.24,188.1,134.24 M39.34,155.49c-4.71,0-5.01-3.44-5.01-7.56
	c0-4.04,0.3-7.48,5.01-7.48c4.71,0,5.01,3.44,5.01,7.56C44.28,152.05,44.06,155.49,39.34,155.49 M39.34,133.79
	c-11.15,0-13.32,7.26-13.32,14.14c0,6.88,2.1,14.14,13.32,14.14s13.32-7.26,13.32-14.14C52.66,141.05,50.49,133.79,39.34,133.79
	 M123.45,133.79c-8.83,0-11.6,4.34-11.45,9.2c0.3,9.5,15.41,6.21,15.41,10.33c0,0.97-0.45,2.54-3.52,2.54s-4.19-1.42-4.19-4.27
	h-8.23c0,6.73,3.44,10.55,12.65,10.55c8.83,0,11.45-5.01,11.45-8.98c0-10.03-14.74-6.88-15.26-10.4c-0.22-1.5,0.37-2.69,3.07-2.69
	c2.84,0,3.82,1.12,3.82,3.67h7.93C135.12,138.13,132.43,133.79,123.45,133.79"/>
<path class="st1" d="M139.76,99.37h-20.35v27.46h20.35v-6.58h-12.2v-4.41h10.92v-5.99h-10.92v-3.97h12.2V99.37"/>
<path class="st1" d="M62.16,41.9v35.02H36.5L19.44,59.86L7.69,71.61V22.45h35.02v-7.48H0.21v69.44h69.44v-3.74V41.9H62.16z
	 M19.44,70.49l6.44,6.44H12.93L19.44,70.49z"/>
<path class="st2" d="M69.65,26.94h7.48v7.48h-7.48V26.94z M84.61,12.05h7.48v7.48h-7.48V12.05z M50.19,7.48h7.48v7.48h-7.48V7.48z
	 M35.23,0h7.48v7.48h-7.48V0z M35,44.37L19.51,28.88L7.69,40.63v10.63l11.82-11.75L35,55l41.3-41.38l-5.24-5.31L35,44.37z"/>
</svg>
