<svg xmlns="http://www.w3.org/2000/svg" viewBox="0 0 193 170">
    <g fill="none" fill-rule="evenodd">
        <g transform="translate(.354) rotate(14.954 34.627 280.98)">
            <path fill="#CD5451" fill-rule="nonzero" d="M43.1 97.974c8.56 0 15.498 6.912 15.498 15.438v8.5H27.604v-8.5c0-8.526 6.938-15.438 15.497-15.438z"/>
            <path fill="#CD5451" fill-rule="nonzero" d="M43.1 97.974c-4.112-.005-8.059 1.62-10.97 4.515-2.91 2.896-4.545 6.826-4.545 10.923v77.94h14.221c9.274 0 16.792-7.49 16.792-16.729v-61.21c0-8.527-6.938-15.44-15.497-15.44z"/>
            <path fill="#FFF" fill-rule="nonzero" d="M49.482 137.66h-3.646c-.619.01-1.215-.232-1.65-.671-.433-.44-.668-1.037-.648-1.653.068-1.216-.012-2.436-.237-3.633-1.433-7.296-7.834-12.57-15.296-12.605-8.56 0-15.498 6.912-15.498 15.439 0 8.526 6.939 15.438 15.498 15.438h16.263c1.641 0 2.972-1.325 2.972-2.96v-1.126h1.258c1.02 0 .93-1.072.93-1.072l.054-7.156z"/>
            <path fill="#000" fill-rule="nonzero" d="M45.708 269.8H52.545V278.464H45.708zM45.708 242.464H58.105999999999995V269.8H45.708z"/>
            <path fill="#FFC955" fill-rule="nonzero" d="M45.708 216.326H58.105999999999995V242.463H45.708z"/>
            <path fill="#000" fill-rule="nonzero" d="M72.765 278.464h-8.77c-3.048 0-5.97-1.21-8.122-3.36s-3.356-5.065-3.346-8.102v-10.898l20.238 22.36z"/>
            <path fill="#000" fill-rule="nonzero" d="M65.636 272.87h6.618c.593 0 1.162.235 1.58.655.417.42.65.987.645 1.578v3.36h-8.843v-5.594z"/>
            <path fill="#000" fill-rule="nonzero" d="M53.53 257.303L70.449 274.159 59.893 274.159z"/>
            <g fill-rule="nonzero">
                <path fill="#000" d="M0 53.473H6.837V62.137H0z" transform="translate(28.15 216.326)"/>
                <path fill="#CD5451" d="M0 26.137H12.398V53.473H0z" transform="translate(28.15 216.326)"/>
                <path fill="#FFC955" d="M0 0H12.398V26.137H0z" transform="translate(28.15 216.326)"/>
                <path fill="#CD5451" d="M27.057 62.137h-8.825c-6.326-.01-11.45-5.122-11.45-11.425V39.96l20.275 22.177z" transform="translate(28.15 216.326)"/>
                <path fill="#CD5451" d="M19.91 56.543h6.618c1.231 0 2.232.989 2.242 2.216v3.378h-8.86v-5.594z" transform="translate(28.15 216.326)"/>
                <path fill="#CD5451" d="M7.822 40.959L24.741 57.832 14.185 57.832z" transform="translate(28.15 216.326)"/>
            </g>
            <path fill="#0375A7" fill-rule="nonzero" d="M68.899 226.316L17.248 226.316 27.585 160.51 58.562 160.51z"/>
            <path stroke="#FFC955" stroke-linecap="round" stroke-width="11.815" d="M14.768 144.98l2.133 3.633c1.167 1.98 5.652 3.633 9.955 3.633h7.785"/>
            <path fill="#CD5451" fill-rule="nonzero" d="M9.225 148.268l-6.034-10.135c-2.262-3.82-2.899-8.383-1.769-12.673 1.13-4.29 3.932-7.954 7.785-10.177l24.194-13.931 6.473 11.152-24.213 13.913c-.867.504-1.497 1.332-1.75 2.3-.254.968-.109 1.997.401 2.859l6.017 10.099-11.104 6.593z"/>
            <path fill="#FFC955" fill-rule="nonzero" d="M106.822 109.49l-9.116-9.083 12.763-12.714 3.883 3.869c2.895 2.898 2.895 7.582 0 10.48l-7.53 7.447z"/>
            <path fill="#CD5451" fill-rule="nonzero" d="M79.146 128.397c-3.394.037-6.739-.815-9.7-2.47l-23.19-13.314 6.453-11.152 23.192 13.332c2.792 1.326 6.106.891 8.46-1.108l13.327-13.278 9.116 9.082-13.328 13.278c-3.853 3.672-8.998 5.693-14.33 5.63z"/>
            <path fill="#FFC955" fill-rule="nonzero" d="M119.476 85.26c.005.723-.284 1.417-.803 1.924l-7.657 7.63c-.51.514-1.207.803-1.933.803s-1.422-.29-1.932-.804c-1.057-1.068-1.057-2.783 0-3.85l7.657-7.63c.51-.514 1.206-.804 1.933-.804.726 0 1.422.29 1.932.805.522.504.812 1.2.803 1.925zM32.435 139.95c-.006.72-.294 1.41-.802 1.925l-7.658 7.628c-1.072 1.053-2.793 1.053-3.865 0-.517-.508-.807-1.202-.807-1.925 0-.724.29-1.417.807-1.925l7.658-7.63c.782-.777 1.957-1.01 2.978-.589 1.022.422 1.688 1.414 1.69 2.515z"/>
            <ellipse cx="17.248" cy="86.458" fill="#000" fill-rule="nonzero" rx="17.248" ry="17.183"/>
            <path fill="#FFC955" fill-rule="nonzero" d="M43.1 0c6.853 0 13.424 2.712 18.269 7.538 4.845 4.827 7.567 11.374 7.567 18.2v36.018c.01 7.199-3.012 14.072-8.332 18.944-6.348 6.006-9.885 14.384-9.754 23.104v9.445H35.352v-9.445c.098-8.723-3.465-17.091-9.827-23.086-5.304-4.886-8.307-11.765-8.278-18.962V25.738C17.257 11.52 28.83 0 43.101 0z"/>
            <path fill="#000" fill-rule="nonzero" d="M43.1 0c6.853 0 13.424 2.712 18.269 7.538 4.845 4.827 7.567 11.374 7.567 18.2v19.525L24.03 8.41C28.91 3.05 35.837-.005 43.1 0zM11.085 70.401c3.699-1.387 6.151-4.908 6.163-8.845V25.738c.003-6.419 2.423-12.602 6.782-17.328v86.149c-1.295-1.43-2.432-2.995-3.391-4.668v13.423c-1.747.347-3.537.42-5.306.218C6.597 102.46.026 95.082 0 86.312c.057-7.07 4.456-13.384 11.085-15.91z"/>
            <path fill="#FFC955" fill-rule="nonzero" d="M24.34 44.591c-2.861-.138-5.567 1.304-7.039 3.752-1.472 2.448-1.472 5.505 0 7.953 1.472 2.448 4.178 3.89 7.039 3.752V44.591z"/>
            <ellipse cx="68.936" cy="50.131" fill="#0375A7" fill-rule="nonzero" rx="3.355" ry="3.342"/>
            <ellipse cx="48.169" cy="50.022" fill="#0375A7" fill-rule="nonzero" rx="3.355" ry="3.342"/>
            <path fill="#FFC955" fill-rule="nonzero" d="M73.385 64.044h-9.117v-8.01h9.117c1.068 0 2.093.423 2.849 1.176.755.753 1.18 1.774 1.18 2.838-.01 2.21-1.811 3.996-4.03 3.996z"/>
            <path fill="#000" fill-rule="nonzero" d="M50.412 68.621c0 2.252 1.206 4.333 3.163 5.459 1.958 1.126 4.37 1.126 6.327 0 1.957-1.126 3.163-3.207 3.163-5.459H50.412zM32.271 89.836L25.726 73.78c-1.119-2.766-1.694-5.719-1.696-8.7v-5.032l-7.913 13.46-.219 14.312 16.373 2.016zM24.03 44.591c9.995-10.005 9.995-26.176 0-36.181V44.59z"/>
            <ellipse cx="43.083" cy="113.267" fill="#FFC955" fill-rule="nonzero" rx="7.749" ry="3.324"/>
            <ellipse cx="36.209" cy="135.027" fill="#000" fill-rule="nonzero" rx="1.404" ry="1.399"/>
            <path fill="#000" fill-rule="nonzero" d="M24.76 134.61c-.224-.001-.443-.057-.639-.164-.472-.23-.77-.711-.766-1.235l.912-7.266v7.266c-.002.185.102.356.268.44.166.085.366.07.516-.04l11.413-8.029-10.939 8.827c-.232.136-.497.205-.766.2z"/>
            <rect width="1.878" height="5.885" x="47.622" y="136.625" fill="#FFF" fill-rule="nonzero" rx=".51"/>
            <path fill="#000" fill-rule="nonzero" d="M47.294 146.688h-3.172c-1.836-.065-3.46-1.205-4.139-2.906l.492.49c.965.968 2.278 1.51 3.647 1.508h3.172v.908z"/>
        </g>
        <text fill="#7FBBD4" font-family="NunitoSans-ExtraBold, Nunito Sans, sans-serif" font-size="34" font-weight="600" letter-spacing=".858" transform="translate(.354) rotate(10 157.5 41)">
            <tspan x="149" y="52">?</tspan>
        </text>
        <text fill="#7FBBD4" font-family="NunitoSans-ExtraBold, Nunito Sans, sans-serif" font-size="34" font-weight="600" letter-spacing=".858" transform="translate(.354) rotate(-20 36.5 88)">
            <tspan x="28" y="99">?</tspan>
        </text>
    </g>
</svg>