<svg xmlns="http://www.w3.org/2000/svg" xmlns:xlink="http://www.w3.org/1999/xlink" viewBox="0 0 123.84 126.43"><defs><clipPath id="a"><circle cx="61.92" cy="61.92" r="61.92" fill="none"/></clipPath></defs><title>Asset 3</title><circle cx="61.92" cy="61.92" r="61.92" fill="#8aab2a"/><g clip-path="url(#a)"><circle cx="61.72" cy="60.5" r="48.77" fill="#fe8a24"/><path d="M61.72,11.73A48.77,48.77,0,0,0,16.45,42.36H107A48.78,48.78,0,0,0,61.72,11.73Z"/><path d="M107,42.36H41.2v62.38A48.77,48.77,0,0,0,107,42.36Z" fill="#fe8a24"/><path d="M16.45,42.36A48.76,48.76,0,0,0,41.2,104.74V42.36Z"/><path d="M16.45,58.33A48.76,48.76,0,0,0,41.2,120.71V58.33Z"/><rect x="12.95" y="59.14" width="28.25" height="16.68"/><circle cx="61.72" cy="64.76" r="5.32"/><circle cx="100.43" cy="64.76" r="5.32"/><path d="M61.72,82.47h0a12.6,12.6,0,0,0,12.6,12.6H87.09" fill="none" stroke="#000" stroke-miterlimit="10"/><path d="M41.2,80.75a10.65,10.65,0,1,1,0-21.29" fill="#fe8a24"/><path d="M41.2,86.14a4.88,4.88,0,1,1,0-9.75" fill="#fe8a24"/><path d="M84.54,60.5l9,15.3a3.63,3.63,0,0,1-3.12,5.47H80.05A3.28,3.28,0,0,1,76.77,78h0a3.28,3.28,0,0,1,3.28-3.28h3.38" fill="none" stroke="#743709" stroke-miterlimit="10"/><path d="M41.2,49.06v-23l5.56,9.07a15.15,15.15,0,0,0,12.93,7.24h5.19l-1,7.6Z" fill="#fe8a24"/><rect x="41.2" y="104.6" width="24.62" height="21.83" fill="#fe8a24"/><path d="M54.69,48.58H67.63a0,0,0,0,1,0,0v2a3.92,3.92,0,0,1-3.92,3.92H50.76a0,0,0,0,1,0,0v-2A3.92,3.92,0,0,1,54.69,48.58Z"/><path d="M94.52,48.58h9.84a3.92,3.92,0,0,1,3.92,3.92v2a0,0,0,0,1,0,0H98.45a3.92,3.92,0,0,1-3.92-3.92v-2A0,0,0,0,1,94.52,48.58Z" transform="translate(202.81 103.06) rotate(180)"/></g></svg>