<?xml version="1.0" encoding="UTF-8"?>
<svg width="110px" height="110px" viewBox="0 0 110 110" version="1.1" xmlns="http://www.w3.org/2000/svg" xmlns:xlink="http://www.w3.org/1999/xlink">
    <g id="slices" stroke="none" stroke-width="1" fill="none" fill-rule="evenodd">
        <g id="svg" transform="translate(-208.000000, -598.000000)" fill-rule="nonzero">
            <g id="u_logo_lecho" transform="translate(208.000000, 598.000000)">
                <rect id="Rectangle-path" fill="#9D0B0F" x="0" y="0" width="110" height="110"></rect>
                <path d="M23.1366667,100.393333 L22.9166667,107.378333 L3.025,107.378333 L3.025,106.26 C4.27166667,106.26 4.95,106.04 5.29833333,105.71 C5.97666667,105.031667 6.06833333,104.591667 6.06833333,92.895 C6.06833333,81.18 5.94,80.795 5.26166667,80.1166667 C4.91333333,79.7683333 4.27166667,79.5116667 3.025,79.5116667 L3.025,78.3566667 L17.05,78.3566667 L17.05,79.5116667 C15.7116667,79.475 14.6483333,79.6766667 14.3,80.025 C13.6216667,80.7033333 13.53,81.62 13.53,93.3166667 L13.53,101.713333 C13.53,105.398333 13.7866667,105.746667 16.4083333,105.746667 L17.4716667,105.746667 C19.7083333,105.746667 21.0833333,103.18 21.9816667,100.98 L22.1466667,100.375 L23.1366667,100.375" id="Shape" fill="#FFFFFF"></path>
                <path d="M18.04,85.855 L17.9483333,84.92 C20.9916667,84.7916667 24.2916667,82.94 25.025,80.465 C25.19,79.9516667 25.1166667,79.2183333 24.6766667,79.2183333 C23.87,79.2183333 23.5216667,80.025 21.1566667,80.025 C18.0216667,80.025 16.995,77.495 16.995,76.12 C16.995,73.5533333 18.8466667,71.5366667 21.6333333,71.5366667 C24.8966667,71.5366667 27.17,74.195 27.17,77.935 C27.17,82.72 22.2016667,85.855 18.04,85.855" id="Shape" fill="#E49F24"></path>
                <path d="M48.4,101.255 L48.18,107.378333 L27.8483333,107.378333 L27.8483333,106.26 C29.095,106.26 29.7733333,106.04 30.1216667,105.71 C30.8,105.031667 30.8916667,104.591667 30.8916667,92.895 C30.8916667,81.18 30.8,80.7216667 30.1216667,80.025 C29.7733333,79.6766667 29.095,79.5116667 27.8483333,79.5116667 L27.8483333,78.3566667 L48.18,78.3566667 L48.4,84.48 L47.465,84.48 L47.3366667,83.875 C46.86,81.6933333 45.155,80.025 42.625,80.025 L38.3716667,80.025 L38.3716667,91.4833333 L41.0666667,91.4833333 C44.33,91.4833333 45.6133333,90.7133333 46.2183333,87.9633333 L47.1533333,87.9633333 L47.1533333,96.6716667 L46.2183333,96.6716667 C45.6133333,93.9766667 44.33,93.115 41.0666667,93.115 L38.3716667,93.115 L38.3716667,101.731667 C38.3716667,105.416667 38.6283333,105.765 41.25,105.765 L42.8816667,105.765 C44.8983333,105.765 46.6583333,104.041667 47.3,101.86 L47.465,101.255 L48.4,101.255" id="Shape" fill="#FFFFFF"></path>
                <path d="M62.37,93.885 C60.1883333,93.885 59.455,92.2166667 59.455,91.0616667 C59.455,89.7233333 60.06,88.5316667 61.1783333,88.1833333 C60.9216667,88.0183333 60.3716667,87.7983333 59.6383333,87.7983333 C57.3283333,87.7983333 55.8616667,90.6216667 55.8616667,97.3683333 C55.8616667,102.593333 57.2,105.6 60.5733333,105.6 C62.4983333,105.6 64.4783333,104.005 64.8266667,103.583333 L65.34,104.096667 C64.1483333,106.15 62.425,108.166667 58.0433333,108.166667 C50.4166667,108.166667 48.9133333,101.218333 48.9133333,97.6983333 C48.9133333,92.3816667 51.4066667,86.3683333 58.9966667,86.3683333 C63.415,86.3683333 65.4316667,88.5133333 65.4316667,90.7866667 C65.4133333,92.9316667 63.745,93.885 62.37,93.885" id="Shape" fill="#FFFFFF"></path>
                <path d="M89.0083333,107.341667 L79.4383333,107.341667 L79.4383333,93.4816667 C79.4383333,90.7866667 79.09,89.6316667 77.33,89.6316667 C75.185,89.6316667 74.25,91.2266667 74.1216667,92.3266667 L74.1216667,92.29 L74.1216667,94.27 C74.1583333,104.811667 74.1216667,104.995 74.7633333,105.636667 C75.0566667,105.93 75.6983333,106.15 76.8166667,106.15 L76.8166667,107.341667 L70.2166667,107.341667 L64.5516667,107.378333 L64.5516667,106.15 C65.67,106.15 66.3116667,105.93 66.605,105.636667 C67.2466667,104.995 67.21,101.951667 67.21,91.3916667 L67.21,83.1233333 C67.21,80.7583333 67.1183333,80.85 65.67,80.1716667 L64.4783333,79.75 L64.4783333,78.98 L74.085,77.0916667 L74.1216667,89.3933333 C74.855,88.2016667 76.56,86.2216667 80.7766667,86.2216667 C83.985,86.2216667 86.3133333,88.3666667 86.3133333,92.4366667 L86.3133333,94.2333333 C86.3133333,104.775 86.3133333,104.995 86.955,105.636667 C87.2483333,105.93 87.89,106.15 89.0083333,106.15 L89.0083333,107.341667" id="Shape" fill="#FFFFFF"></path>
                <path d="M97.7533333,108.111667 C93.0416667,108.111667 87.7616667,104.811667 87.7616667,97.4416667 C87.7616667,88.77 93.7566667,86.3683333 98.0466667,86.3683333 C102.721667,86.3683333 108.075,89.4116667 108.075,97.0016667 C108.093333,103.4 103.803333,108.111667 97.7533333,108.111667 L97.7533333,108.111667 Z M98.065,87.835 C95.755,87.835 94.8933333,90.2733333 94.765,96.9283333 C94.6,104.481667 96.0116667,106.791667 97.9,106.791667 C99.7516667,106.791667 101.108333,104.903333 101.108333,97.0933333 C101.108333,90.2366667 100.081667,87.835 98.065,87.835 Z" id="Shape" fill="#FFFFFF"></path>
            </g>
        </g>
    </g>
</svg>